<mxfile host="app.diagrams.net" agent="Mozilla/5.0 (Windows NT 10.0; Win64; x64) AppleWebKit/537.36 (KHTML, like Gecko) Chrome/131.0.0.0 Safari/537.36" version="24.9.2" pages="5">
  <diagram name="Use Case" id="LJgy11jDFUkANIeebYXn">
    <mxGraphModel dx="1615" dy="857" grid="1" gridSize="10" guides="1" tooltips="1" connect="1" arrows="1" fold="1" page="1" pageScale="1" pageWidth="850" pageHeight="1100" math="0" shadow="0">
      <root>
        <mxCell id="0" />
        <mxCell id="1" parent="0" />
        <mxCell id="q0xa1zcVQUA5lipz7cfi-1" value="Agen" style="shape=umlActor;verticalLabelPosition=bottom;verticalAlign=top;html=1;outlineConnect=0;" vertex="1" parent="1">
          <mxGeometry x="85" y="130" width="30" height="60" as="geometry" />
        </mxCell>
        <mxCell id="q0xa1zcVQUA5lipz7cfi-2" value="Mengelola stok bawang merah" style="ellipse;whiteSpace=wrap;html=1;" vertex="1" parent="1">
          <mxGeometry x="240" y="40" width="100" height="70" as="geometry" />
        </mxCell>
        <mxCell id="q0xa1zcVQUA5lipz7cfi-6" value="Mencatat transaksi pembelian dan penjualan" style="ellipse;whiteSpace=wrap;html=1;" vertex="1" parent="1">
          <mxGeometry x="240" y="120" width="100" height="70" as="geometry" />
        </mxCell>
        <mxCell id="q0xa1zcVQUA5lipz7cfi-7" value="Melihat laporan transaksi dan stok" style="ellipse;whiteSpace=wrap;html=1;" vertex="1" parent="1">
          <mxGeometry x="230" y="200" width="110" height="70" as="geometry" />
        </mxCell>
        <mxCell id="q0xa1zcVQUA5lipz7cfi-8" value="Mengakses prediksi permintaan" style="ellipse;whiteSpace=wrap;html=1;" vertex="1" parent="1">
          <mxGeometry x="240" y="280" width="100" height="60" as="geometry" />
        </mxCell>
        <mxCell id="q0xa1zcVQUA5lipz7cfi-15" value="" style="endArrow=classic;html=1;rounded=0;entryX=0;entryY=0.5;entryDx=0;entryDy=0;exitX=1;exitY=0.3333333333333333;exitDx=0;exitDy=0;exitPerimeter=0;" edge="1" parent="1" source="q0xa1zcVQUA5lipz7cfi-1" target="q0xa1zcVQUA5lipz7cfi-2">
          <mxGeometry width="50" height="50" relative="1" as="geometry">
            <mxPoint x="140" y="160" as="sourcePoint" />
            <mxPoint x="190" y="110" as="targetPoint" />
          </mxGeometry>
        </mxCell>
        <mxCell id="q0xa1zcVQUA5lipz7cfi-16" value="" style="endArrow=classic;html=1;rounded=0;exitX=1;exitY=0.3333333333333333;exitDx=0;exitDy=0;exitPerimeter=0;entryX=0;entryY=0.5;entryDx=0;entryDy=0;" edge="1" parent="1" source="q0xa1zcVQUA5lipz7cfi-1" target="q0xa1zcVQUA5lipz7cfi-6">
          <mxGeometry width="50" height="50" relative="1" as="geometry">
            <mxPoint x="150" y="200" as="sourcePoint" />
            <mxPoint x="200" y="150" as="targetPoint" />
            <Array as="points">
              <mxPoint x="115" y="155" />
              <mxPoint x="120" y="155" />
              <mxPoint x="140" y="155" />
              <mxPoint x="170" y="155" />
            </Array>
          </mxGeometry>
        </mxCell>
        <mxCell id="q0xa1zcVQUA5lipz7cfi-17" value="" style="endArrow=classic;html=1;rounded=0;exitX=1;exitY=0.3333333333333333;exitDx=0;exitDy=0;exitPerimeter=0;entryX=0;entryY=0.5;entryDx=0;entryDy=0;" edge="1" parent="1" source="q0xa1zcVQUA5lipz7cfi-1" target="q0xa1zcVQUA5lipz7cfi-7">
          <mxGeometry width="50" height="50" relative="1" as="geometry">
            <mxPoint x="150" y="240" as="sourcePoint" />
            <mxPoint x="200" y="190" as="targetPoint" />
          </mxGeometry>
        </mxCell>
        <mxCell id="q0xa1zcVQUA5lipz7cfi-18" value="" style="endArrow=classic;html=1;rounded=0;exitX=1;exitY=0.3333333333333333;exitDx=0;exitDy=0;exitPerimeter=0;entryX=0;entryY=0.5;entryDx=0;entryDy=0;" edge="1" parent="1" source="q0xa1zcVQUA5lipz7cfi-1" target="q0xa1zcVQUA5lipz7cfi-8">
          <mxGeometry width="50" height="50" relative="1" as="geometry">
            <mxPoint x="210" y="320" as="sourcePoint" />
            <mxPoint x="260" y="270" as="targetPoint" />
          </mxGeometry>
        </mxCell>
        <mxCell id="q0xa1zcVQUA5lipz7cfi-20" value="Pemilik" style="shape=umlActor;verticalLabelPosition=bottom;verticalAlign=top;html=1;outlineConnect=0;" vertex="1" parent="1">
          <mxGeometry x="85" y="449" width="30" height="60" as="geometry" />
        </mxCell>
        <mxCell id="q0xa1zcVQUA5lipz7cfi-21" value="&lt;table&gt;&lt;tbody&gt;&lt;tr&gt;&lt;td&gt;Melihat laporan keuangan&lt;/td&gt;&lt;/tr&gt;&lt;/tbody&gt;&lt;/table&gt;&lt;table&gt;&lt;tbody&gt;&lt;tr&gt;&lt;td&gt;&lt;/td&gt;&lt;/tr&gt;&lt;/tbody&gt;&lt;/table&gt;" style="ellipse;whiteSpace=wrap;html=1;" vertex="1" parent="1">
          <mxGeometry x="237.5" y="440" width="105" height="61" as="geometry" />
        </mxCell>
        <mxCell id="q0xa1zcVQUA5lipz7cfi-22" value="Melihat laporan prediksi permintaan" style="ellipse;whiteSpace=wrap;html=1;" vertex="1" parent="1">
          <mxGeometry x="237.5" y="515" width="105" height="70" as="geometry" />
        </mxCell>
        <mxCell id="q0xa1zcVQUA5lipz7cfi-23" value="Mengelola data agen" style="ellipse;whiteSpace=wrap;html=1;" vertex="1" parent="1">
          <mxGeometry x="242.5" y="600" width="95" height="60" as="geometry" />
        </mxCell>
        <mxCell id="q0xa1zcVQUA5lipz7cfi-24" value="Mengakses laporan kinerja agen" style="ellipse;whiteSpace=wrap;html=1;" vertex="1" parent="1">
          <mxGeometry x="245" y="680" width="90" height="60" as="geometry" />
        </mxCell>
        <mxCell id="q0xa1zcVQUA5lipz7cfi-25" value="" style="endArrow=classic;html=1;rounded=0;exitX=1;exitY=0.3333333333333333;exitDx=0;exitDy=0;exitPerimeter=0;entryX=0;entryY=0.5;entryDx=0;entryDy=0;" edge="1" parent="1" source="q0xa1zcVQUA5lipz7cfi-20" target="q0xa1zcVQUA5lipz7cfi-21">
          <mxGeometry width="50" height="50" relative="1" as="geometry">
            <mxPoint x="120" y="470" as="sourcePoint" />
            <mxPoint x="170" y="420" as="targetPoint" />
          </mxGeometry>
        </mxCell>
        <mxCell id="q0xa1zcVQUA5lipz7cfi-26" value="" style="endArrow=classic;html=1;rounded=0;exitX=1;exitY=0.3333333333333333;exitDx=0;exitDy=0;exitPerimeter=0;entryX=0;entryY=0.5;entryDx=0;entryDy=0;" edge="1" parent="1" source="q0xa1zcVQUA5lipz7cfi-20" target="q0xa1zcVQUA5lipz7cfi-22">
          <mxGeometry width="50" height="50" relative="1" as="geometry">
            <mxPoint x="170" y="570" as="sourcePoint" />
            <mxPoint x="220" y="520" as="targetPoint" />
          </mxGeometry>
        </mxCell>
        <mxCell id="q0xa1zcVQUA5lipz7cfi-27" value="" style="endArrow=classic;html=1;rounded=0;exitX=1;exitY=0.3333333333333333;exitDx=0;exitDy=0;exitPerimeter=0;entryX=0;entryY=0.5;entryDx=0;entryDy=0;" edge="1" parent="1" source="q0xa1zcVQUA5lipz7cfi-20" target="q0xa1zcVQUA5lipz7cfi-23">
          <mxGeometry width="50" height="50" relative="1" as="geometry">
            <mxPoint x="90" y="590" as="sourcePoint" />
            <mxPoint x="140" y="540" as="targetPoint" />
          </mxGeometry>
        </mxCell>
        <mxCell id="q0xa1zcVQUA5lipz7cfi-28" value="" style="endArrow=classic;html=1;rounded=0;exitX=1;exitY=0.3333333333333333;exitDx=0;exitDy=0;exitPerimeter=0;entryX=0;entryY=0.5;entryDx=0;entryDy=0;" edge="1" parent="1" source="q0xa1zcVQUA5lipz7cfi-20" target="q0xa1zcVQUA5lipz7cfi-24">
          <mxGeometry width="50" height="50" relative="1" as="geometry">
            <mxPoint x="140" y="640" as="sourcePoint" />
            <mxPoint x="190" y="590" as="targetPoint" />
          </mxGeometry>
        </mxCell>
        <mxCell id="1U1UNi9Q-Rf7r_uFaStB-3" value="" style="swimlane;startSize=0;" vertex="1" parent="1">
          <mxGeometry x="160" width="240" height="400" as="geometry" />
        </mxCell>
        <mxCell id="1U1UNi9Q-Rf7r_uFaStB-5" value="" style="swimlane;startSize=0;" vertex="1" parent="1">
          <mxGeometry x="160" y="420" width="240" height="340" as="geometry" />
        </mxCell>
      </root>
    </mxGraphModel>
  </diagram>
  <diagram id="ZbEGp5RS5QGRkJxdkLQR" name="Activity Diagram">
    <mxGraphModel dx="1615" dy="857" grid="1" gridSize="10" guides="1" tooltips="1" connect="1" arrows="1" fold="1" page="1" pageScale="1" pageWidth="850" pageHeight="1100" math="0" shadow="0">
      <root>
        <mxCell id="0" />
        <mxCell id="1" parent="0" />
        <mxCell id="dSSvWtM7qpFLiSF0CuGZ-1" value="Proses Pengelolaan Stok" style="swimlane;childLayout=stackLayout;resizeParent=1;resizeParentMax=0;startSize=20;html=1;" vertex="1" parent="1">
          <mxGeometry x="190" y="80" width="570" height="840" as="geometry" />
        </mxCell>
        <mxCell id="dSSvWtM7qpFLiSF0CuGZ-2" value="Agen" style="swimlane;startSize=20;html=1;" vertex="1" parent="dSSvWtM7qpFLiSF0CuGZ-1">
          <mxGeometry y="20" width="410" height="820" as="geometry" />
        </mxCell>
        <mxCell id="2mL4r9JcfPfCJMmxT85b-5" style="edgeStyle=orthogonalEdgeStyle;rounded=0;orthogonalLoop=1;jettySize=auto;html=1;" edge="1" parent="dSSvWtM7qpFLiSF0CuGZ-2" source="2mL4r9JcfPfCJMmxT85b-1" target="2mL4r9JcfPfCJMmxT85b-2">
          <mxGeometry relative="1" as="geometry" />
        </mxCell>
        <mxCell id="2mL4r9JcfPfCJMmxT85b-1" value="Mulai" style="ellipse;whiteSpace=wrap;html=1;" vertex="1" parent="dSSvWtM7qpFLiSF0CuGZ-2">
          <mxGeometry x="172.5" y="30" width="85" height="40" as="geometry" />
        </mxCell>
        <mxCell id="2mL4r9JcfPfCJMmxT85b-2" value="Login" style="rounded=0;whiteSpace=wrap;html=1;" vertex="1" parent="dSSvWtM7qpFLiSF0CuGZ-2">
          <mxGeometry x="170" y="100" width="90" height="40" as="geometry" />
        </mxCell>
        <mxCell id="d-ncJJEE6i45Jpo1rDL4-6" style="edgeStyle=orthogonalEdgeStyle;rounded=0;orthogonalLoop=1;jettySize=auto;html=1;entryX=0.5;entryY=0;entryDx=0;entryDy=0;" edge="1" parent="dSSvWtM7qpFLiSF0CuGZ-2" source="2mL4r9JcfPfCJMmxT85b-7" target="d-ncJJEE6i45Jpo1rDL4-5">
          <mxGeometry relative="1" as="geometry" />
        </mxCell>
        <mxCell id="2mL4r9JcfPfCJMmxT85b-7" value="Pilih Menu Stok" style="rounded=0;whiteSpace=wrap;html=1;" vertex="1" parent="dSSvWtM7qpFLiSF0CuGZ-2">
          <mxGeometry x="170" y="180" width="90" height="40" as="geometry" />
        </mxCell>
        <mxCell id="d-ncJJEE6i45Jpo1rDL4-9" style="edgeStyle=orthogonalEdgeStyle;rounded=0;orthogonalLoop=1;jettySize=auto;html=1;entryX=0.5;entryY=0;entryDx=0;entryDy=0;" edge="1" parent="dSSvWtM7qpFLiSF0CuGZ-2" source="d-ncJJEE6i45Jpo1rDL4-5" target="d-ncJJEE6i45Jpo1rDL4-7">
          <mxGeometry relative="1" as="geometry" />
        </mxCell>
        <mxCell id="d-ncJJEE6i45Jpo1rDL4-5" value="Pilih Aksi" style="rounded=0;whiteSpace=wrap;html=1;" vertex="1" parent="dSSvWtM7qpFLiSF0CuGZ-2">
          <mxGeometry x="170" y="260" width="90" height="40" as="geometry" />
        </mxCell>
        <mxCell id="d-ncJJEE6i45Jpo1rDL4-11" style="edgeStyle=orthogonalEdgeStyle;rounded=0;orthogonalLoop=1;jettySize=auto;html=1;entryX=0.5;entryY=0;entryDx=0;entryDy=0;" edge="1" parent="dSSvWtM7qpFLiSF0CuGZ-2" source="d-ncJJEE6i45Jpo1rDL4-7" target="d-ncJJEE6i45Jpo1rDL4-10">
          <mxGeometry relative="1" as="geometry" />
        </mxCell>
        <mxCell id="d-ncJJEE6i45Jpo1rDL4-13" style="edgeStyle=orthogonalEdgeStyle;rounded=0;orthogonalLoop=1;jettySize=auto;html=1;entryX=0.5;entryY=0;entryDx=0;entryDy=0;" edge="1" parent="dSSvWtM7qpFLiSF0CuGZ-2" source="d-ncJJEE6i45Jpo1rDL4-7" target="d-ncJJEE6i45Jpo1rDL4-12">
          <mxGeometry relative="1" as="geometry" />
        </mxCell>
        <mxCell id="d-ncJJEE6i45Jpo1rDL4-15" style="edgeStyle=orthogonalEdgeStyle;rounded=0;orthogonalLoop=1;jettySize=auto;html=1;entryX=0.5;entryY=0;entryDx=0;entryDy=0;" edge="1" parent="dSSvWtM7qpFLiSF0CuGZ-2" source="d-ncJJEE6i45Jpo1rDL4-7" target="d-ncJJEE6i45Jpo1rDL4-14">
          <mxGeometry relative="1" as="geometry" />
        </mxCell>
        <mxCell id="d-ncJJEE6i45Jpo1rDL4-7" value="" style="rhombus;whiteSpace=wrap;html=1;" vertex="1" parent="dSSvWtM7qpFLiSF0CuGZ-2">
          <mxGeometry x="175" y="340" width="80" height="80" as="geometry" />
        </mxCell>
        <mxCell id="d-ncJJEE6i45Jpo1rDL4-18" style="edgeStyle=orthogonalEdgeStyle;rounded=0;orthogonalLoop=1;jettySize=auto;html=1;entryX=0;entryY=0.5;entryDx=0;entryDy=0;" edge="1" parent="dSSvWtM7qpFLiSF0CuGZ-2" source="d-ncJJEE6i45Jpo1rDL4-10" target="d-ncJJEE6i45Jpo1rDL4-16">
          <mxGeometry relative="1" as="geometry">
            <Array as="points">
              <mxPoint x="95" y="600" />
            </Array>
          </mxGeometry>
        </mxCell>
        <mxCell id="d-ncJJEE6i45Jpo1rDL4-10" value="Tambah" style="rounded=0;whiteSpace=wrap;html=1;" vertex="1" parent="dSSvWtM7qpFLiSF0CuGZ-2">
          <mxGeometry x="50" y="460" width="90" height="40" as="geometry" />
        </mxCell>
        <mxCell id="d-ncJJEE6i45Jpo1rDL4-17" style="edgeStyle=orthogonalEdgeStyle;rounded=0;orthogonalLoop=1;jettySize=auto;html=1;" edge="1" parent="dSSvWtM7qpFLiSF0CuGZ-2" source="d-ncJJEE6i45Jpo1rDL4-12" target="d-ncJJEE6i45Jpo1rDL4-16">
          <mxGeometry relative="1" as="geometry">
            <Array as="points">
              <mxPoint x="215" y="600" />
            </Array>
          </mxGeometry>
        </mxCell>
        <mxCell id="d-ncJJEE6i45Jpo1rDL4-12" value="Ubah" style="rounded=0;whiteSpace=wrap;html=1;" vertex="1" parent="dSSvWtM7qpFLiSF0CuGZ-2">
          <mxGeometry x="170" y="460" width="90" height="40" as="geometry" />
        </mxCell>
        <mxCell id="d-ncJJEE6i45Jpo1rDL4-19" style="edgeStyle=orthogonalEdgeStyle;rounded=0;orthogonalLoop=1;jettySize=auto;html=1;entryX=0.5;entryY=0;entryDx=0;entryDy=0;" edge="1" parent="dSSvWtM7qpFLiSF0CuGZ-2" source="d-ncJJEE6i45Jpo1rDL4-14" target="d-ncJJEE6i45Jpo1rDL4-16">
          <mxGeometry relative="1" as="geometry" />
        </mxCell>
        <mxCell id="d-ncJJEE6i45Jpo1rDL4-14" value="Hapus" style="rounded=0;whiteSpace=wrap;html=1;" vertex="1" parent="dSSvWtM7qpFLiSF0CuGZ-2">
          <mxGeometry x="290" y="460" width="90" height="40" as="geometry" />
        </mxCell>
        <mxCell id="d-ncJJEE6i45Jpo1rDL4-20" style="edgeStyle=orthogonalEdgeStyle;rounded=0;orthogonalLoop=1;jettySize=auto;html=1;" edge="1" parent="dSSvWtM7qpFLiSF0CuGZ-2" source="d-ncJJEE6i45Jpo1rDL4-16">
          <mxGeometry relative="1" as="geometry">
            <mxPoint x="450" y="600" as="targetPoint" />
          </mxGeometry>
        </mxCell>
        <mxCell id="d-ncJJEE6i45Jpo1rDL4-16" value="" style="ellipse;whiteSpace=wrap;html=1;aspect=fixed;" vertex="1" parent="dSSvWtM7qpFLiSF0CuGZ-2">
          <mxGeometry x="315" y="580" width="40" height="40" as="geometry" />
        </mxCell>
        <mxCell id="dSSvWtM7qpFLiSF0CuGZ-3" value="Sistem" style="swimlane;startSize=20;html=1;" vertex="1" parent="dSSvWtM7qpFLiSF0CuGZ-1">
          <mxGeometry x="410" y="20" width="160" height="820" as="geometry" />
        </mxCell>
        <mxCell id="2mL4r9JcfPfCJMmxT85b-4" value="Menampilkan Dashboard" style="rounded=0;whiteSpace=wrap;html=1;" vertex="1" parent="dSSvWtM7qpFLiSF0CuGZ-3">
          <mxGeometry x="38" y="140" width="90" height="40" as="geometry" />
        </mxCell>
        <mxCell id="d-ncJJEE6i45Jpo1rDL4-23" style="edgeStyle=orthogonalEdgeStyle;rounded=0;orthogonalLoop=1;jettySize=auto;html=1;" edge="1" parent="dSSvWtM7qpFLiSF0CuGZ-3" source="d-ncJJEE6i45Jpo1rDL4-21" target="d-ncJJEE6i45Jpo1rDL4-22">
          <mxGeometry relative="1" as="geometry" />
        </mxCell>
        <mxCell id="d-ncJJEE6i45Jpo1rDL4-21" value="Validasi" style="rounded=0;whiteSpace=wrap;html=1;" vertex="1" parent="dSSvWtM7qpFLiSF0CuGZ-3">
          <mxGeometry x="40" y="580" width="90" height="40" as="geometry" />
        </mxCell>
        <mxCell id="d-ncJJEE6i45Jpo1rDL4-45" style="edgeStyle=orthogonalEdgeStyle;rounded=0;orthogonalLoop=1;jettySize=auto;html=1;entryX=0.5;entryY=0;entryDx=0;entryDy=0;" edge="1" parent="dSSvWtM7qpFLiSF0CuGZ-3" source="d-ncJJEE6i45Jpo1rDL4-22" target="d-ncJJEE6i45Jpo1rDL4-44">
          <mxGeometry relative="1" as="geometry" />
        </mxCell>
        <mxCell id="d-ncJJEE6i45Jpo1rDL4-22" value="Simpan Perubahan" style="rounded=0;whiteSpace=wrap;html=1;" vertex="1" parent="dSSvWtM7qpFLiSF0CuGZ-3">
          <mxGeometry x="40" y="660" width="90" height="40" as="geometry" />
        </mxCell>
        <mxCell id="d-ncJJEE6i45Jpo1rDL4-44" value="Selesai" style="ellipse;whiteSpace=wrap;html=1;" vertex="1" parent="dSSvWtM7qpFLiSF0CuGZ-3">
          <mxGeometry x="43" y="740" width="85" height="40" as="geometry" />
        </mxCell>
        <mxCell id="2mL4r9JcfPfCJMmxT85b-6" style="edgeStyle=orthogonalEdgeStyle;rounded=0;orthogonalLoop=1;jettySize=auto;html=1;entryX=0.5;entryY=0;entryDx=0;entryDy=0;" edge="1" parent="dSSvWtM7qpFLiSF0CuGZ-1" source="2mL4r9JcfPfCJMmxT85b-2" target="2mL4r9JcfPfCJMmxT85b-4">
          <mxGeometry relative="1" as="geometry" />
        </mxCell>
        <mxCell id="2mL4r9JcfPfCJMmxT85b-8" style="edgeStyle=orthogonalEdgeStyle;rounded=0;orthogonalLoop=1;jettySize=auto;html=1;entryX=0.5;entryY=0;entryDx=0;entryDy=0;" edge="1" parent="dSSvWtM7qpFLiSF0CuGZ-1" source="2mL4r9JcfPfCJMmxT85b-4" target="2mL4r9JcfPfCJMmxT85b-7">
          <mxGeometry relative="1" as="geometry" />
        </mxCell>
        <mxCell id="d-ncJJEE6i45Jpo1rDL4-76" value="Proses Transaksi" style="swimlane;childLayout=stackLayout;resizeParent=1;resizeParentMax=0;startSize=20;html=1;" vertex="1" parent="1">
          <mxGeometry x="880" y="80" width="570" height="910" as="geometry" />
        </mxCell>
        <mxCell id="d-ncJJEE6i45Jpo1rDL4-77" value="Agen" style="swimlane;startSize=20;html=1;" vertex="1" parent="d-ncJJEE6i45Jpo1rDL4-76">
          <mxGeometry y="20" width="410" height="890" as="geometry" />
        </mxCell>
        <mxCell id="d-ncJJEE6i45Jpo1rDL4-78" style="edgeStyle=orthogonalEdgeStyle;rounded=0;orthogonalLoop=1;jettySize=auto;html=1;" edge="1" parent="d-ncJJEE6i45Jpo1rDL4-77" source="d-ncJJEE6i45Jpo1rDL4-79" target="d-ncJJEE6i45Jpo1rDL4-80">
          <mxGeometry relative="1" as="geometry" />
        </mxCell>
        <mxCell id="d-ncJJEE6i45Jpo1rDL4-79" value="Mulai" style="ellipse;whiteSpace=wrap;html=1;" vertex="1" parent="d-ncJJEE6i45Jpo1rDL4-77">
          <mxGeometry x="172.5" y="30" width="85" height="40" as="geometry" />
        </mxCell>
        <mxCell id="d-ncJJEE6i45Jpo1rDL4-80" value="Login" style="rounded=0;whiteSpace=wrap;html=1;" vertex="1" parent="d-ncJJEE6i45Jpo1rDL4-77">
          <mxGeometry x="170" y="100" width="90" height="40" as="geometry" />
        </mxCell>
        <mxCell id="d-ncJJEE6i45Jpo1rDL4-81" style="edgeStyle=orthogonalEdgeStyle;rounded=0;orthogonalLoop=1;jettySize=auto;html=1;entryX=0.5;entryY=0;entryDx=0;entryDy=0;" edge="1" parent="d-ncJJEE6i45Jpo1rDL4-77" source="d-ncJJEE6i45Jpo1rDL4-82" target="d-ncJJEE6i45Jpo1rDL4-84">
          <mxGeometry relative="1" as="geometry" />
        </mxCell>
        <mxCell id="d-ncJJEE6i45Jpo1rDL4-82" value="Pilih Menu Trasaksi" style="rounded=0;whiteSpace=wrap;html=1;" vertex="1" parent="d-ncJJEE6i45Jpo1rDL4-77">
          <mxGeometry x="170" y="180" width="90" height="40" as="geometry" />
        </mxCell>
        <mxCell id="WyepTaQkF5cSHgOTPEkO-3" style="edgeStyle=orthogonalEdgeStyle;rounded=0;orthogonalLoop=1;jettySize=auto;html=1;entryX=0.5;entryY=0;entryDx=0;entryDy=0;" edge="1" parent="d-ncJJEE6i45Jpo1rDL4-77" source="d-ncJJEE6i45Jpo1rDL4-84" target="WyepTaQkF5cSHgOTPEkO-2">
          <mxGeometry relative="1" as="geometry" />
        </mxCell>
        <mxCell id="d-ncJJEE6i45Jpo1rDL4-84" value="Pilih Transaksi" style="rounded=0;whiteSpace=wrap;html=1;" vertex="1" parent="d-ncJJEE6i45Jpo1rDL4-77">
          <mxGeometry x="170" y="250" width="90" height="40" as="geometry" />
        </mxCell>
        <mxCell id="WyepTaQkF5cSHgOTPEkO-9" style="edgeStyle=orthogonalEdgeStyle;rounded=0;orthogonalLoop=1;jettySize=auto;html=1;entryX=0;entryY=0.5;entryDx=0;entryDy=0;" edge="1" parent="d-ncJJEE6i45Jpo1rDL4-77" source="WyepTaQkF5cSHgOTPEkO-1" target="WyepTaQkF5cSHgOTPEkO-8">
          <mxGeometry relative="1" as="geometry">
            <Array as="points">
              <mxPoint x="130" y="550" />
            </Array>
          </mxGeometry>
        </mxCell>
        <mxCell id="WyepTaQkF5cSHgOTPEkO-1" value="Transaksi Pembelian" style="rounded=0;whiteSpace=wrap;html=1;" vertex="1" parent="d-ncJJEE6i45Jpo1rDL4-77">
          <mxGeometry x="90" y="450" width="90" height="40" as="geometry" />
        </mxCell>
        <mxCell id="WyepTaQkF5cSHgOTPEkO-4" style="edgeStyle=orthogonalEdgeStyle;rounded=0;orthogonalLoop=1;jettySize=auto;html=1;entryX=0.5;entryY=0;entryDx=0;entryDy=0;" edge="1" parent="d-ncJJEE6i45Jpo1rDL4-77" source="WyepTaQkF5cSHgOTPEkO-2" target="WyepTaQkF5cSHgOTPEkO-1">
          <mxGeometry relative="1" as="geometry">
            <Array as="points">
              <mxPoint x="135" y="370" />
            </Array>
          </mxGeometry>
        </mxCell>
        <mxCell id="WyepTaQkF5cSHgOTPEkO-7" style="edgeStyle=orthogonalEdgeStyle;rounded=0;orthogonalLoop=1;jettySize=auto;html=1;entryX=0.5;entryY=0;entryDx=0;entryDy=0;" edge="1" parent="d-ncJJEE6i45Jpo1rDL4-77" source="WyepTaQkF5cSHgOTPEkO-2" target="WyepTaQkF5cSHgOTPEkO-6">
          <mxGeometry relative="1" as="geometry">
            <Array as="points">
              <mxPoint x="295" y="370" />
            </Array>
          </mxGeometry>
        </mxCell>
        <mxCell id="WyepTaQkF5cSHgOTPEkO-2" value="" style="rhombus;whiteSpace=wrap;html=1;" vertex="1" parent="d-ncJJEE6i45Jpo1rDL4-77">
          <mxGeometry x="175" y="330" width="80" height="80" as="geometry" />
        </mxCell>
        <mxCell id="WyepTaQkF5cSHgOTPEkO-10" style="edgeStyle=orthogonalEdgeStyle;rounded=0;orthogonalLoop=1;jettySize=auto;html=1;entryX=1;entryY=0.5;entryDx=0;entryDy=0;" edge="1" parent="d-ncJJEE6i45Jpo1rDL4-77" source="WyepTaQkF5cSHgOTPEkO-6" target="WyepTaQkF5cSHgOTPEkO-8">
          <mxGeometry relative="1" as="geometry">
            <Array as="points">
              <mxPoint x="295" y="550" />
            </Array>
          </mxGeometry>
        </mxCell>
        <mxCell id="WyepTaQkF5cSHgOTPEkO-6" value="Transaksi Penjualan" style="rounded=0;whiteSpace=wrap;html=1;" vertex="1" parent="d-ncJJEE6i45Jpo1rDL4-77">
          <mxGeometry x="250" y="450" width="90" height="40" as="geometry" />
        </mxCell>
        <mxCell id="WyepTaQkF5cSHgOTPEkO-12" style="edgeStyle=orthogonalEdgeStyle;rounded=0;orthogonalLoop=1;jettySize=auto;html=1;entryX=0.5;entryY=0;entryDx=0;entryDy=0;" edge="1" parent="d-ncJJEE6i45Jpo1rDL4-77" source="WyepTaQkF5cSHgOTPEkO-8" target="WyepTaQkF5cSHgOTPEkO-11">
          <mxGeometry relative="1" as="geometry" />
        </mxCell>
        <mxCell id="WyepTaQkF5cSHgOTPEkO-8" value="" style="ellipse;whiteSpace=wrap;html=1;aspect=fixed;" vertex="1" parent="d-ncJJEE6i45Jpo1rDL4-77">
          <mxGeometry x="195" y="530" width="40" height="40" as="geometry" />
        </mxCell>
        <mxCell id="WyepTaQkF5cSHgOTPEkO-11" value="Masukkan Data Transaksi" style="rounded=0;whiteSpace=wrap;html=1;" vertex="1" parent="d-ncJJEE6i45Jpo1rDL4-77">
          <mxGeometry x="170" y="610" width="90" height="40" as="geometry" />
        </mxCell>
        <mxCell id="d-ncJJEE6i45Jpo1rDL4-97" value="Sistem" style="swimlane;startSize=20;html=1;" vertex="1" parent="d-ncJJEE6i45Jpo1rDL4-76">
          <mxGeometry x="410" y="20" width="160" height="890" as="geometry" />
        </mxCell>
        <mxCell id="d-ncJJEE6i45Jpo1rDL4-98" value="Menampilkan Dashboard" style="rounded=0;whiteSpace=wrap;html=1;" vertex="1" parent="d-ncJJEE6i45Jpo1rDL4-97">
          <mxGeometry x="38" y="140" width="90" height="40" as="geometry" />
        </mxCell>
        <mxCell id="d-ncJJEE6i45Jpo1rDL4-99" style="edgeStyle=orthogonalEdgeStyle;rounded=0;orthogonalLoop=1;jettySize=auto;html=1;" edge="1" parent="d-ncJJEE6i45Jpo1rDL4-97" source="d-ncJJEE6i45Jpo1rDL4-100" target="d-ncJJEE6i45Jpo1rDL4-102">
          <mxGeometry relative="1" as="geometry" />
        </mxCell>
        <mxCell id="d-ncJJEE6i45Jpo1rDL4-100" value="Validasi" style="rounded=0;whiteSpace=wrap;html=1;" vertex="1" parent="d-ncJJEE6i45Jpo1rDL4-97">
          <mxGeometry x="38" y="650" width="90" height="40" as="geometry" />
        </mxCell>
        <mxCell id="d-ncJJEE6i45Jpo1rDL4-101" style="edgeStyle=orthogonalEdgeStyle;rounded=0;orthogonalLoop=1;jettySize=auto;html=1;entryX=0.5;entryY=0;entryDx=0;entryDy=0;" edge="1" parent="d-ncJJEE6i45Jpo1rDL4-97" source="d-ncJJEE6i45Jpo1rDL4-102" target="d-ncJJEE6i45Jpo1rDL4-103">
          <mxGeometry relative="1" as="geometry" />
        </mxCell>
        <mxCell id="d-ncJJEE6i45Jpo1rDL4-102" value="Simpan Perubahan" style="rounded=0;whiteSpace=wrap;html=1;" vertex="1" parent="d-ncJJEE6i45Jpo1rDL4-97">
          <mxGeometry x="38" y="730" width="90" height="40" as="geometry" />
        </mxCell>
        <mxCell id="d-ncJJEE6i45Jpo1rDL4-103" value="Selesai" style="ellipse;whiteSpace=wrap;html=1;" vertex="1" parent="d-ncJJEE6i45Jpo1rDL4-97">
          <mxGeometry x="41" y="810" width="85" height="40" as="geometry" />
        </mxCell>
        <mxCell id="d-ncJJEE6i45Jpo1rDL4-104" style="edgeStyle=orthogonalEdgeStyle;rounded=0;orthogonalLoop=1;jettySize=auto;html=1;entryX=0.5;entryY=0;entryDx=0;entryDy=0;" edge="1" parent="d-ncJJEE6i45Jpo1rDL4-76" source="d-ncJJEE6i45Jpo1rDL4-80" target="d-ncJJEE6i45Jpo1rDL4-98">
          <mxGeometry relative="1" as="geometry" />
        </mxCell>
        <mxCell id="d-ncJJEE6i45Jpo1rDL4-105" style="edgeStyle=orthogonalEdgeStyle;rounded=0;orthogonalLoop=1;jettySize=auto;html=1;entryX=0.5;entryY=0;entryDx=0;entryDy=0;" edge="1" parent="d-ncJJEE6i45Jpo1rDL4-76" source="d-ncJJEE6i45Jpo1rDL4-98" target="d-ncJJEE6i45Jpo1rDL4-82">
          <mxGeometry relative="1" as="geometry" />
        </mxCell>
        <mxCell id="WyepTaQkF5cSHgOTPEkO-15" style="edgeStyle=orthogonalEdgeStyle;rounded=0;orthogonalLoop=1;jettySize=auto;html=1;entryX=0.5;entryY=0;entryDx=0;entryDy=0;" edge="1" parent="d-ncJJEE6i45Jpo1rDL4-76" source="WyepTaQkF5cSHgOTPEkO-11" target="d-ncJJEE6i45Jpo1rDL4-100">
          <mxGeometry relative="1" as="geometry" />
        </mxCell>
        <mxCell id="WyepTaQkF5cSHgOTPEkO-16" value="Proses Lihat Laporan Transasksi dan Stok" style="swimlane;childLayout=stackLayout;resizeParent=1;resizeParentMax=0;startSize=20;html=1;" vertex="1" parent="1">
          <mxGeometry x="1600" y="80" width="600" height="880" as="geometry" />
        </mxCell>
        <mxCell id="WyepTaQkF5cSHgOTPEkO-17" value="Agen" style="swimlane;startSize=20;html=1;" vertex="1" parent="WyepTaQkF5cSHgOTPEkO-16">
          <mxGeometry y="20" width="320" height="860" as="geometry" />
        </mxCell>
        <mxCell id="WyepTaQkF5cSHgOTPEkO-18" style="edgeStyle=orthogonalEdgeStyle;rounded=0;orthogonalLoop=1;jettySize=auto;html=1;" edge="1" parent="WyepTaQkF5cSHgOTPEkO-17" source="WyepTaQkF5cSHgOTPEkO-19" target="WyepTaQkF5cSHgOTPEkO-20">
          <mxGeometry relative="1" as="geometry" />
        </mxCell>
        <mxCell id="WyepTaQkF5cSHgOTPEkO-19" value="Mulai" style="ellipse;whiteSpace=wrap;html=1;" vertex="1" parent="WyepTaQkF5cSHgOTPEkO-17">
          <mxGeometry x="112.5" y="30" width="85" height="40" as="geometry" />
        </mxCell>
        <mxCell id="WyepTaQkF5cSHgOTPEkO-20" value="Login" style="rounded=0;whiteSpace=wrap;html=1;" vertex="1" parent="WyepTaQkF5cSHgOTPEkO-17">
          <mxGeometry x="110" y="100" width="90" height="40" as="geometry" />
        </mxCell>
        <mxCell id="WyepTaQkF5cSHgOTPEkO-21" style="edgeStyle=orthogonalEdgeStyle;rounded=0;orthogonalLoop=1;jettySize=auto;html=1;entryX=0.5;entryY=0;entryDx=0;entryDy=0;" edge="1" parent="WyepTaQkF5cSHgOTPEkO-17" source="WyepTaQkF5cSHgOTPEkO-22" target="WyepTaQkF5cSHgOTPEkO-24">
          <mxGeometry relative="1" as="geometry" />
        </mxCell>
        <mxCell id="WyepTaQkF5cSHgOTPEkO-22" value="Pilih Menu Laporan" style="rounded=0;whiteSpace=wrap;html=1;" vertex="1" parent="WyepTaQkF5cSHgOTPEkO-17">
          <mxGeometry x="110" y="180" width="90" height="40" as="geometry" />
        </mxCell>
        <mxCell id="WyepTaQkF5cSHgOTPEkO-23" style="edgeStyle=orthogonalEdgeStyle;rounded=0;orthogonalLoop=1;jettySize=auto;html=1;entryX=0.5;entryY=0;entryDx=0;entryDy=0;" edge="1" parent="WyepTaQkF5cSHgOTPEkO-17" source="WyepTaQkF5cSHgOTPEkO-24" target="WyepTaQkF5cSHgOTPEkO-28">
          <mxGeometry relative="1" as="geometry" />
        </mxCell>
        <mxCell id="WyepTaQkF5cSHgOTPEkO-24" value="Pilih Laporan" style="rounded=0;whiteSpace=wrap;html=1;" vertex="1" parent="WyepTaQkF5cSHgOTPEkO-17">
          <mxGeometry x="110" y="260" width="90" height="40" as="geometry" />
        </mxCell>
        <mxCell id="WyepTaQkF5cSHgOTPEkO-27" style="edgeStyle=orthogonalEdgeStyle;rounded=0;orthogonalLoop=1;jettySize=auto;html=1;entryX=0.5;entryY=0;entryDx=0;entryDy=0;" edge="1" parent="WyepTaQkF5cSHgOTPEkO-17" source="WyepTaQkF5cSHgOTPEkO-28" target="WyepTaQkF5cSHgOTPEkO-34">
          <mxGeometry relative="1" as="geometry">
            <Array as="points">
              <mxPoint x="215" y="380" />
            </Array>
          </mxGeometry>
        </mxCell>
        <mxCell id="_XTwV8xZ3qjwVdTHyX0W-5" style="edgeStyle=orthogonalEdgeStyle;rounded=0;orthogonalLoop=1;jettySize=auto;html=1;" edge="1" parent="WyepTaQkF5cSHgOTPEkO-17" source="WyepTaQkF5cSHgOTPEkO-28" target="WyepTaQkF5cSHgOTPEkO-30">
          <mxGeometry relative="1" as="geometry">
            <Array as="points">
              <mxPoint x="85" y="380" />
            </Array>
          </mxGeometry>
        </mxCell>
        <mxCell id="WyepTaQkF5cSHgOTPEkO-28" value="" style="rhombus;whiteSpace=wrap;html=1;" vertex="1" parent="WyepTaQkF5cSHgOTPEkO-17">
          <mxGeometry x="115" y="340" width="80" height="80" as="geometry" />
        </mxCell>
        <mxCell id="WyepTaQkF5cSHgOTPEkO-30" value="Laporan Transaksi" style="rounded=0;whiteSpace=wrap;html=1;" vertex="1" parent="WyepTaQkF5cSHgOTPEkO-17">
          <mxGeometry x="40" y="540" width="90" height="40" as="geometry" />
        </mxCell>
        <mxCell id="WyepTaQkF5cSHgOTPEkO-34" value="Laporan Stok" style="rounded=0;whiteSpace=wrap;html=1;" vertex="1" parent="WyepTaQkF5cSHgOTPEkO-17">
          <mxGeometry x="170" y="460" width="90" height="40" as="geometry" />
        </mxCell>
        <mxCell id="WyepTaQkF5cSHgOTPEkO-37" value="Sistem" style="swimlane;startSize=20;html=1;" vertex="1" parent="WyepTaQkF5cSHgOTPEkO-16">
          <mxGeometry x="320" y="20" width="280" height="860" as="geometry" />
        </mxCell>
        <mxCell id="WyepTaQkF5cSHgOTPEkO-38" value="Menampilkan Dashboard" style="rounded=0;whiteSpace=wrap;html=1;" vertex="1" parent="WyepTaQkF5cSHgOTPEkO-37">
          <mxGeometry x="38" y="140" width="90" height="40" as="geometry" />
        </mxCell>
        <mxCell id="WyepTaQkF5cSHgOTPEkO-43" value="Selesai" style="ellipse;whiteSpace=wrap;html=1;" vertex="1" parent="WyepTaQkF5cSHgOTPEkO-37">
          <mxGeometry x="97.5" y="780" width="85" height="40" as="geometry" />
        </mxCell>
        <mxCell id="_XTwV8xZ3qjwVdTHyX0W-10" style="edgeStyle=orthogonalEdgeStyle;rounded=0;orthogonalLoop=1;jettySize=auto;html=1;entryX=1;entryY=0.5;entryDx=0;entryDy=0;exitX=0.5;exitY=1;exitDx=0;exitDy=0;" edge="1" parent="WyepTaQkF5cSHgOTPEkO-37" source="_XTwV8xZ3qjwVdTHyX0W-3" target="_XTwV8xZ3qjwVdTHyX0W-8">
          <mxGeometry relative="1" as="geometry" />
        </mxCell>
        <mxCell id="_XTwV8xZ3qjwVdTHyX0W-3" value="Tampilkan Status Stok" style="rounded=0;whiteSpace=wrap;html=1;" vertex="1" parent="WyepTaQkF5cSHgOTPEkO-37">
          <mxGeometry x="167" y="540" width="90" height="40" as="geometry" />
        </mxCell>
        <mxCell id="_XTwV8xZ3qjwVdTHyX0W-9" style="edgeStyle=orthogonalEdgeStyle;rounded=0;orthogonalLoop=1;jettySize=auto;html=1;entryX=0;entryY=0.5;entryDx=0;entryDy=0;" edge="1" parent="WyepTaQkF5cSHgOTPEkO-37" source="_XTwV8xZ3qjwVdTHyX0W-1" target="_XTwV8xZ3qjwVdTHyX0W-8">
          <mxGeometry relative="1" as="geometry" />
        </mxCell>
        <mxCell id="_XTwV8xZ3qjwVdTHyX0W-1" value="Filter Data Laporan" style="rounded=0;whiteSpace=wrap;html=1;" vertex="1" parent="WyepTaQkF5cSHgOTPEkO-37">
          <mxGeometry x="37" y="540" width="90" height="40" as="geometry" />
        </mxCell>
        <mxCell id="_XTwV8xZ3qjwVdTHyX0W-12" style="edgeStyle=orthogonalEdgeStyle;rounded=0;orthogonalLoop=1;jettySize=auto;html=1;" edge="1" parent="WyepTaQkF5cSHgOTPEkO-37" source="_XTwV8xZ3qjwVdTHyX0W-8" target="_XTwV8xZ3qjwVdTHyX0W-11">
          <mxGeometry relative="1" as="geometry" />
        </mxCell>
        <mxCell id="_XTwV8xZ3qjwVdTHyX0W-8" value="" style="ellipse;whiteSpace=wrap;html=1;aspect=fixed;" vertex="1" parent="WyepTaQkF5cSHgOTPEkO-37">
          <mxGeometry x="120" y="620" width="40" height="40" as="geometry" />
        </mxCell>
        <mxCell id="_XTwV8xZ3qjwVdTHyX0W-14" style="edgeStyle=orthogonalEdgeStyle;rounded=0;orthogonalLoop=1;jettySize=auto;html=1;" edge="1" parent="WyepTaQkF5cSHgOTPEkO-37" source="_XTwV8xZ3qjwVdTHyX0W-11" target="WyepTaQkF5cSHgOTPEkO-43">
          <mxGeometry relative="1" as="geometry" />
        </mxCell>
        <mxCell id="_XTwV8xZ3qjwVdTHyX0W-11" value="Tampilkan Laporan" style="rounded=0;whiteSpace=wrap;html=1;" vertex="1" parent="WyepTaQkF5cSHgOTPEkO-37">
          <mxGeometry x="95" y="700" width="90" height="40" as="geometry" />
        </mxCell>
        <mxCell id="WyepTaQkF5cSHgOTPEkO-44" style="edgeStyle=orthogonalEdgeStyle;rounded=0;orthogonalLoop=1;jettySize=auto;html=1;entryX=0.5;entryY=0;entryDx=0;entryDy=0;" edge="1" parent="WyepTaQkF5cSHgOTPEkO-16" source="WyepTaQkF5cSHgOTPEkO-20" target="WyepTaQkF5cSHgOTPEkO-38">
          <mxGeometry relative="1" as="geometry" />
        </mxCell>
        <mxCell id="WyepTaQkF5cSHgOTPEkO-45" style="edgeStyle=orthogonalEdgeStyle;rounded=0;orthogonalLoop=1;jettySize=auto;html=1;entryX=0.5;entryY=0;entryDx=0;entryDy=0;" edge="1" parent="WyepTaQkF5cSHgOTPEkO-16" source="WyepTaQkF5cSHgOTPEkO-38" target="WyepTaQkF5cSHgOTPEkO-22">
          <mxGeometry relative="1" as="geometry" />
        </mxCell>
        <mxCell id="_XTwV8xZ3qjwVdTHyX0W-6" style="edgeStyle=orthogonalEdgeStyle;rounded=0;orthogonalLoop=1;jettySize=auto;html=1;" edge="1" parent="WyepTaQkF5cSHgOTPEkO-16" source="WyepTaQkF5cSHgOTPEkO-30" target="_XTwV8xZ3qjwVdTHyX0W-1">
          <mxGeometry relative="1" as="geometry" />
        </mxCell>
        <mxCell id="_XTwV8xZ3qjwVdTHyX0W-7" style="edgeStyle=orthogonalEdgeStyle;rounded=0;orthogonalLoop=1;jettySize=auto;html=1;entryX=0.5;entryY=0;entryDx=0;entryDy=0;" edge="1" parent="WyepTaQkF5cSHgOTPEkO-16" source="WyepTaQkF5cSHgOTPEkO-34" target="_XTwV8xZ3qjwVdTHyX0W-3">
          <mxGeometry relative="1" as="geometry" />
        </mxCell>
        <mxCell id="j-AN6DEub5GYeKMYSOVQ-30" value="Proses Prediksi Permintaan" style="swimlane;childLayout=stackLayout;resizeParent=1;resizeParentMax=0;startSize=20;html=1;" vertex="1" parent="1">
          <mxGeometry x="2320" y="80" width="480" height="440" as="geometry" />
        </mxCell>
        <mxCell id="j-AN6DEub5GYeKMYSOVQ-31" value="Agen" style="swimlane;startSize=20;html=1;" vertex="1" parent="j-AN6DEub5GYeKMYSOVQ-30">
          <mxGeometry y="20" width="320" height="420" as="geometry" />
        </mxCell>
        <mxCell id="j-AN6DEub5GYeKMYSOVQ-32" style="edgeStyle=orthogonalEdgeStyle;rounded=0;orthogonalLoop=1;jettySize=auto;html=1;" edge="1" parent="j-AN6DEub5GYeKMYSOVQ-31" source="j-AN6DEub5GYeKMYSOVQ-33" target="j-AN6DEub5GYeKMYSOVQ-34">
          <mxGeometry relative="1" as="geometry" />
        </mxCell>
        <mxCell id="j-AN6DEub5GYeKMYSOVQ-33" value="Mulai" style="ellipse;whiteSpace=wrap;html=1;" vertex="1" parent="j-AN6DEub5GYeKMYSOVQ-31">
          <mxGeometry x="112.5" y="30" width="85" height="40" as="geometry" />
        </mxCell>
        <mxCell id="j-AN6DEub5GYeKMYSOVQ-34" value="Login" style="rounded=0;whiteSpace=wrap;html=1;" vertex="1" parent="j-AN6DEub5GYeKMYSOVQ-31">
          <mxGeometry x="110" y="100" width="90" height="40" as="geometry" />
        </mxCell>
        <mxCell id="j-AN6DEub5GYeKMYSOVQ-35" style="edgeStyle=orthogonalEdgeStyle;rounded=0;orthogonalLoop=1;jettySize=auto;html=1;entryX=0.5;entryY=0;entryDx=0;entryDy=0;" edge="1" parent="j-AN6DEub5GYeKMYSOVQ-31" source="j-AN6DEub5GYeKMYSOVQ-36" target="j-AN6DEub5GYeKMYSOVQ-38">
          <mxGeometry relative="1" as="geometry" />
        </mxCell>
        <mxCell id="j-AN6DEub5GYeKMYSOVQ-36" value="Pilih Menu Predisksi Permintaan" style="rounded=0;whiteSpace=wrap;html=1;" vertex="1" parent="j-AN6DEub5GYeKMYSOVQ-31">
          <mxGeometry x="110" y="180" width="90" height="50" as="geometry" />
        </mxCell>
        <mxCell id="j-AN6DEub5GYeKMYSOVQ-38" value="Masukkan Kriteria Prediksi" style="rounded=0;whiteSpace=wrap;html=1;" vertex="1" parent="j-AN6DEub5GYeKMYSOVQ-31">
          <mxGeometry x="110" y="260" width="90" height="40" as="geometry" />
        </mxCell>
        <mxCell id="j-AN6DEub5GYeKMYSOVQ-44" value="Sistem" style="swimlane;startSize=20;html=1;" vertex="1" parent="j-AN6DEub5GYeKMYSOVQ-30">
          <mxGeometry x="320" y="20" width="160" height="420" as="geometry" />
        </mxCell>
        <mxCell id="j-AN6DEub5GYeKMYSOVQ-45" value="Menampilkan Dashboard" style="rounded=0;whiteSpace=wrap;html=1;" vertex="1" parent="j-AN6DEub5GYeKMYSOVQ-44">
          <mxGeometry x="38" y="140" width="90" height="40" as="geometry" />
        </mxCell>
        <mxCell id="j-AN6DEub5GYeKMYSOVQ-46" value="Selesai" style="ellipse;whiteSpace=wrap;html=1;" vertex="1" parent="j-AN6DEub5GYeKMYSOVQ-44">
          <mxGeometry x="40.5" y="340" width="85" height="40" as="geometry" />
        </mxCell>
        <mxCell id="j-AN6DEub5GYeKMYSOVQ-53" style="edgeStyle=orthogonalEdgeStyle;rounded=0;orthogonalLoop=1;jettySize=auto;html=1;" edge="1" parent="j-AN6DEub5GYeKMYSOVQ-44" source="j-AN6DEub5GYeKMYSOVQ-54" target="j-AN6DEub5GYeKMYSOVQ-46">
          <mxGeometry relative="1" as="geometry" />
        </mxCell>
        <mxCell id="j-AN6DEub5GYeKMYSOVQ-54" value="Tampilkan Prediksi Permintaan" style="rounded=0;whiteSpace=wrap;html=1;" vertex="1" parent="j-AN6DEub5GYeKMYSOVQ-44">
          <mxGeometry x="38" y="260" width="90" height="50" as="geometry" />
        </mxCell>
        <mxCell id="j-AN6DEub5GYeKMYSOVQ-55" style="edgeStyle=orthogonalEdgeStyle;rounded=0;orthogonalLoop=1;jettySize=auto;html=1;entryX=0.5;entryY=0;entryDx=0;entryDy=0;" edge="1" parent="j-AN6DEub5GYeKMYSOVQ-30" source="j-AN6DEub5GYeKMYSOVQ-34" target="j-AN6DEub5GYeKMYSOVQ-45">
          <mxGeometry relative="1" as="geometry" />
        </mxCell>
        <mxCell id="j-AN6DEub5GYeKMYSOVQ-56" style="edgeStyle=orthogonalEdgeStyle;rounded=0;orthogonalLoop=1;jettySize=auto;html=1;entryX=0.5;entryY=0;entryDx=0;entryDy=0;" edge="1" parent="j-AN6DEub5GYeKMYSOVQ-30" source="j-AN6DEub5GYeKMYSOVQ-45" target="j-AN6DEub5GYeKMYSOVQ-36">
          <mxGeometry relative="1" as="geometry" />
        </mxCell>
        <mxCell id="j-AN6DEub5GYeKMYSOVQ-59" style="edgeStyle=orthogonalEdgeStyle;rounded=0;orthogonalLoop=1;jettySize=auto;html=1;" edge="1" parent="j-AN6DEub5GYeKMYSOVQ-30" source="j-AN6DEub5GYeKMYSOVQ-38" target="j-AN6DEub5GYeKMYSOVQ-54">
          <mxGeometry relative="1" as="geometry">
            <Array as="points">
              <mxPoint x="240" y="305" />
              <mxPoint x="240" y="305" />
            </Array>
          </mxGeometry>
        </mxCell>
        <mxCell id="5pozOn41hBSMCEKeeRHU-1" value="Proses Lihat Laporan Keuangan" style="swimlane;childLayout=stackLayout;resizeParent=1;resizeParentMax=0;startSize=20;html=1;" vertex="1" parent="1">
          <mxGeometry x="2320" y="560" width="480" height="520" as="geometry" />
        </mxCell>
        <mxCell id="5pozOn41hBSMCEKeeRHU-2" value="Pemilik" style="swimlane;startSize=20;html=1;" vertex="1" parent="5pozOn41hBSMCEKeeRHU-1">
          <mxGeometry y="20" width="320" height="500" as="geometry" />
        </mxCell>
        <mxCell id="5pozOn41hBSMCEKeeRHU-3" style="edgeStyle=orthogonalEdgeStyle;rounded=0;orthogonalLoop=1;jettySize=auto;html=1;" edge="1" parent="5pozOn41hBSMCEKeeRHU-2" source="5pozOn41hBSMCEKeeRHU-4" target="5pozOn41hBSMCEKeeRHU-5">
          <mxGeometry relative="1" as="geometry" />
        </mxCell>
        <mxCell id="5pozOn41hBSMCEKeeRHU-4" value="Mulai" style="ellipse;whiteSpace=wrap;html=1;" vertex="1" parent="5pozOn41hBSMCEKeeRHU-2">
          <mxGeometry x="112.5" y="30" width="85" height="40" as="geometry" />
        </mxCell>
        <mxCell id="5pozOn41hBSMCEKeeRHU-5" value="Login" style="rounded=0;whiteSpace=wrap;html=1;" vertex="1" parent="5pozOn41hBSMCEKeeRHU-2">
          <mxGeometry x="110" y="100" width="90" height="40" as="geometry" />
        </mxCell>
        <mxCell id="5pozOn41hBSMCEKeeRHU-7" value="Pilih Menu Laporan Keuangan" style="rounded=0;whiteSpace=wrap;html=1;" vertex="1" parent="5pozOn41hBSMCEKeeRHU-2">
          <mxGeometry x="110" y="180" width="90" height="50" as="geometry" />
        </mxCell>
        <mxCell id="5pozOn41hBSMCEKeeRHU-9" value="Sistem" style="swimlane;startSize=20;html=1;" vertex="1" parent="5pozOn41hBSMCEKeeRHU-1">
          <mxGeometry x="320" y="20" width="160" height="500" as="geometry" />
        </mxCell>
        <mxCell id="5pozOn41hBSMCEKeeRHU-10" value="Menampilkan Dashboard" style="rounded=0;whiteSpace=wrap;html=1;" vertex="1" parent="5pozOn41hBSMCEKeeRHU-9">
          <mxGeometry x="38" y="140" width="90" height="40" as="geometry" />
        </mxCell>
        <mxCell id="5pozOn41hBSMCEKeeRHU-11" value="Selesai" style="ellipse;whiteSpace=wrap;html=1;" vertex="1" parent="5pozOn41hBSMCEKeeRHU-9">
          <mxGeometry x="41.5" y="420" width="85" height="40" as="geometry" />
        </mxCell>
        <mxCell id="5pozOn41hBSMCEKeeRHU-12" style="edgeStyle=orthogonalEdgeStyle;rounded=0;orthogonalLoop=1;jettySize=auto;html=1;" edge="1" parent="5pozOn41hBSMCEKeeRHU-9" source="5pozOn41hBSMCEKeeRHU-13" target="5pozOn41hBSMCEKeeRHU-11">
          <mxGeometry relative="1" as="geometry" />
        </mxCell>
        <mxCell id="5pozOn41hBSMCEKeeRHU-13" value="Tampilkan Laporan Keuangan" style="rounded=0;whiteSpace=wrap;html=1;" vertex="1" parent="5pozOn41hBSMCEKeeRHU-9">
          <mxGeometry x="39" y="340" width="90" height="50" as="geometry" />
        </mxCell>
        <mxCell id="4Ox4Dx-Rs-Soowru-IMW-19" style="edgeStyle=orthogonalEdgeStyle;rounded=0;orthogonalLoop=1;jettySize=auto;html=1;" edge="1" parent="5pozOn41hBSMCEKeeRHU-9" source="4Ox4Dx-Rs-Soowru-IMW-17" target="5pozOn41hBSMCEKeeRHU-13">
          <mxGeometry relative="1" as="geometry" />
        </mxCell>
        <mxCell id="4Ox4Dx-Rs-Soowru-IMW-17" value="Filter Data Laporan Keuangan" style="rounded=0;whiteSpace=wrap;html=1;" vertex="1" parent="5pozOn41hBSMCEKeeRHU-9">
          <mxGeometry x="40.5" y="240" width="90" height="50" as="geometry" />
        </mxCell>
        <mxCell id="5pozOn41hBSMCEKeeRHU-14" style="edgeStyle=orthogonalEdgeStyle;rounded=0;orthogonalLoop=1;jettySize=auto;html=1;entryX=0.5;entryY=0;entryDx=0;entryDy=0;" edge="1" parent="5pozOn41hBSMCEKeeRHU-1" source="5pozOn41hBSMCEKeeRHU-5" target="5pozOn41hBSMCEKeeRHU-10">
          <mxGeometry relative="1" as="geometry" />
        </mxCell>
        <mxCell id="5pozOn41hBSMCEKeeRHU-15" style="edgeStyle=orthogonalEdgeStyle;rounded=0;orthogonalLoop=1;jettySize=auto;html=1;entryX=0.5;entryY=0;entryDx=0;entryDy=0;" edge="1" parent="5pozOn41hBSMCEKeeRHU-1" source="5pozOn41hBSMCEKeeRHU-10" target="5pozOn41hBSMCEKeeRHU-7">
          <mxGeometry relative="1" as="geometry" />
        </mxCell>
        <mxCell id="4Ox4Dx-Rs-Soowru-IMW-18" style="edgeStyle=orthogonalEdgeStyle;rounded=0;orthogonalLoop=1;jettySize=auto;html=1;entryX=0.5;entryY=0;entryDx=0;entryDy=0;" edge="1" parent="5pozOn41hBSMCEKeeRHU-1" source="5pozOn41hBSMCEKeeRHU-7" target="4Ox4Dx-Rs-Soowru-IMW-17">
          <mxGeometry relative="1" as="geometry" />
        </mxCell>
        <mxCell id="dM31QwTDfbf-kO0aVtCc-1" value="Proses Melihat Laporan Kinerja Agen" style="swimlane;childLayout=stackLayout;resizeParent=1;resizeParentMax=0;startSize=20;html=1;" vertex="1" parent="1">
          <mxGeometry x="2890" y="560" width="480" height="440" as="geometry" />
        </mxCell>
        <mxCell id="dM31QwTDfbf-kO0aVtCc-2" value="Pemilik" style="swimlane;startSize=20;html=1;" vertex="1" parent="dM31QwTDfbf-kO0aVtCc-1">
          <mxGeometry y="20" width="320" height="420" as="geometry" />
        </mxCell>
        <mxCell id="dM31QwTDfbf-kO0aVtCc-3" style="edgeStyle=orthogonalEdgeStyle;rounded=0;orthogonalLoop=1;jettySize=auto;html=1;" edge="1" parent="dM31QwTDfbf-kO0aVtCc-2" source="dM31QwTDfbf-kO0aVtCc-4" target="dM31QwTDfbf-kO0aVtCc-5">
          <mxGeometry relative="1" as="geometry" />
        </mxCell>
        <mxCell id="dM31QwTDfbf-kO0aVtCc-4" value="Mulai" style="ellipse;whiteSpace=wrap;html=1;" vertex="1" parent="dM31QwTDfbf-kO0aVtCc-2">
          <mxGeometry x="112.5" y="30" width="85" height="40" as="geometry" />
        </mxCell>
        <mxCell id="dM31QwTDfbf-kO0aVtCc-5" value="Login" style="rounded=0;whiteSpace=wrap;html=1;" vertex="1" parent="dM31QwTDfbf-kO0aVtCc-2">
          <mxGeometry x="110" y="100" width="90" height="40" as="geometry" />
        </mxCell>
        <mxCell id="dM31QwTDfbf-kO0aVtCc-7" value="Pilih Menu Laporan Kinerja Agen" style="rounded=0;whiteSpace=wrap;html=1;" vertex="1" parent="dM31QwTDfbf-kO0aVtCc-2">
          <mxGeometry x="110" y="180" width="90" height="60" as="geometry" />
        </mxCell>
        <mxCell id="dM31QwTDfbf-kO0aVtCc-9" value="Sistem" style="swimlane;startSize=20;html=1;" vertex="1" parent="dM31QwTDfbf-kO0aVtCc-1">
          <mxGeometry x="320" y="20" width="160" height="420" as="geometry" />
        </mxCell>
        <mxCell id="dM31QwTDfbf-kO0aVtCc-10" value="Menampilkan Dashboard" style="rounded=0;whiteSpace=wrap;html=1;" vertex="1" parent="dM31QwTDfbf-kO0aVtCc-9">
          <mxGeometry x="38" y="140" width="90" height="40" as="geometry" />
        </mxCell>
        <mxCell id="dM31QwTDfbf-kO0aVtCc-11" value="Selesai" style="ellipse;whiteSpace=wrap;html=1;" vertex="1" parent="dM31QwTDfbf-kO0aVtCc-9">
          <mxGeometry x="40.5" y="340" width="85" height="40" as="geometry" />
        </mxCell>
        <mxCell id="dM31QwTDfbf-kO0aVtCc-12" style="edgeStyle=orthogonalEdgeStyle;rounded=0;orthogonalLoop=1;jettySize=auto;html=1;" edge="1" parent="dM31QwTDfbf-kO0aVtCc-9" source="dM31QwTDfbf-kO0aVtCc-13" target="dM31QwTDfbf-kO0aVtCc-11">
          <mxGeometry relative="1" as="geometry" />
        </mxCell>
        <mxCell id="dM31QwTDfbf-kO0aVtCc-13" value="Tampilkan Laporan Kinerja Agen" style="rounded=0;whiteSpace=wrap;html=1;" vertex="1" parent="dM31QwTDfbf-kO0aVtCc-9">
          <mxGeometry x="38" y="250" width="90" height="60" as="geometry" />
        </mxCell>
        <mxCell id="dM31QwTDfbf-kO0aVtCc-14" style="edgeStyle=orthogonalEdgeStyle;rounded=0;orthogonalLoop=1;jettySize=auto;html=1;entryX=0.5;entryY=0;entryDx=0;entryDy=0;" edge="1" parent="dM31QwTDfbf-kO0aVtCc-1" source="dM31QwTDfbf-kO0aVtCc-5" target="dM31QwTDfbf-kO0aVtCc-10">
          <mxGeometry relative="1" as="geometry" />
        </mxCell>
        <mxCell id="dM31QwTDfbf-kO0aVtCc-15" style="edgeStyle=orthogonalEdgeStyle;rounded=0;orthogonalLoop=1;jettySize=auto;html=1;entryX=0.5;entryY=0;entryDx=0;entryDy=0;" edge="1" parent="dM31QwTDfbf-kO0aVtCc-1" source="dM31QwTDfbf-kO0aVtCc-10" target="dM31QwTDfbf-kO0aVtCc-7">
          <mxGeometry relative="1" as="geometry" />
        </mxCell>
        <mxCell id="dM31QwTDfbf-kO0aVtCc-17" style="edgeStyle=orthogonalEdgeStyle;rounded=0;orthogonalLoop=1;jettySize=auto;html=1;entryX=0.5;entryY=0;entryDx=0;entryDy=0;" edge="1" parent="dM31QwTDfbf-kO0aVtCc-1" source="dM31QwTDfbf-kO0aVtCc-7" target="dM31QwTDfbf-kO0aVtCc-13">
          <mxGeometry relative="1" as="geometry" />
        </mxCell>
        <mxCell id="S6d78YjtUpr14IPoyVkW-32" value="Proses Pengelolaan Data Agen" style="swimlane;childLayout=stackLayout;resizeParent=1;resizeParentMax=0;startSize=20;html=1;" vertex="1" parent="1">
          <mxGeometry x="190" y="1080" width="570" height="840" as="geometry" />
        </mxCell>
        <mxCell id="S6d78YjtUpr14IPoyVkW-33" value="Pemilik" style="swimlane;startSize=20;html=1;" vertex="1" parent="S6d78YjtUpr14IPoyVkW-32">
          <mxGeometry y="20" width="410" height="820" as="geometry" />
        </mxCell>
        <mxCell id="S6d78YjtUpr14IPoyVkW-34" style="edgeStyle=orthogonalEdgeStyle;rounded=0;orthogonalLoop=1;jettySize=auto;html=1;" edge="1" parent="S6d78YjtUpr14IPoyVkW-33" source="S6d78YjtUpr14IPoyVkW-35" target="S6d78YjtUpr14IPoyVkW-36">
          <mxGeometry relative="1" as="geometry" />
        </mxCell>
        <mxCell id="S6d78YjtUpr14IPoyVkW-35" value="Mulai" style="ellipse;whiteSpace=wrap;html=1;" vertex="1" parent="S6d78YjtUpr14IPoyVkW-33">
          <mxGeometry x="172.5" y="30" width="85" height="40" as="geometry" />
        </mxCell>
        <mxCell id="S6d78YjtUpr14IPoyVkW-36" value="Login" style="rounded=0;whiteSpace=wrap;html=1;" vertex="1" parent="S6d78YjtUpr14IPoyVkW-33">
          <mxGeometry x="170" y="100" width="90" height="40" as="geometry" />
        </mxCell>
        <mxCell id="S6d78YjtUpr14IPoyVkW-37" style="edgeStyle=orthogonalEdgeStyle;rounded=0;orthogonalLoop=1;jettySize=auto;html=1;entryX=0.5;entryY=0;entryDx=0;entryDy=0;" edge="1" parent="S6d78YjtUpr14IPoyVkW-33" source="S6d78YjtUpr14IPoyVkW-38" target="S6d78YjtUpr14IPoyVkW-40">
          <mxGeometry relative="1" as="geometry" />
        </mxCell>
        <mxCell id="S6d78YjtUpr14IPoyVkW-38" value="Pilih Menu Pengelolaan Data Agen" style="rounded=0;whiteSpace=wrap;html=1;" vertex="1" parent="S6d78YjtUpr14IPoyVkW-33">
          <mxGeometry x="170" y="180" width="90" height="50" as="geometry" />
        </mxCell>
        <mxCell id="S6d78YjtUpr14IPoyVkW-39" style="edgeStyle=orthogonalEdgeStyle;rounded=0;orthogonalLoop=1;jettySize=auto;html=1;entryX=0.5;entryY=0;entryDx=0;entryDy=0;" edge="1" parent="S6d78YjtUpr14IPoyVkW-33" source="S6d78YjtUpr14IPoyVkW-40" target="S6d78YjtUpr14IPoyVkW-44">
          <mxGeometry relative="1" as="geometry" />
        </mxCell>
        <mxCell id="S6d78YjtUpr14IPoyVkW-40" value="Pilih Aksi" style="rounded=0;whiteSpace=wrap;html=1;" vertex="1" parent="S6d78YjtUpr14IPoyVkW-33">
          <mxGeometry x="170" y="260" width="90" height="40" as="geometry" />
        </mxCell>
        <mxCell id="S6d78YjtUpr14IPoyVkW-41" style="edgeStyle=orthogonalEdgeStyle;rounded=0;orthogonalLoop=1;jettySize=auto;html=1;entryX=0.5;entryY=0;entryDx=0;entryDy=0;" edge="1" parent="S6d78YjtUpr14IPoyVkW-33" source="S6d78YjtUpr14IPoyVkW-44" target="S6d78YjtUpr14IPoyVkW-46">
          <mxGeometry relative="1" as="geometry" />
        </mxCell>
        <mxCell id="S6d78YjtUpr14IPoyVkW-42" style="edgeStyle=orthogonalEdgeStyle;rounded=0;orthogonalLoop=1;jettySize=auto;html=1;entryX=0.5;entryY=0;entryDx=0;entryDy=0;" edge="1" parent="S6d78YjtUpr14IPoyVkW-33" source="S6d78YjtUpr14IPoyVkW-44" target="S6d78YjtUpr14IPoyVkW-48">
          <mxGeometry relative="1" as="geometry" />
        </mxCell>
        <mxCell id="S6d78YjtUpr14IPoyVkW-43" style="edgeStyle=orthogonalEdgeStyle;rounded=0;orthogonalLoop=1;jettySize=auto;html=1;entryX=0.5;entryY=0;entryDx=0;entryDy=0;" edge="1" parent="S6d78YjtUpr14IPoyVkW-33" source="S6d78YjtUpr14IPoyVkW-44" target="S6d78YjtUpr14IPoyVkW-50">
          <mxGeometry relative="1" as="geometry" />
        </mxCell>
        <mxCell id="S6d78YjtUpr14IPoyVkW-44" value="" style="rhombus;whiteSpace=wrap;html=1;" vertex="1" parent="S6d78YjtUpr14IPoyVkW-33">
          <mxGeometry x="175" y="340" width="80" height="80" as="geometry" />
        </mxCell>
        <mxCell id="S6d78YjtUpr14IPoyVkW-45" style="edgeStyle=orthogonalEdgeStyle;rounded=0;orthogonalLoop=1;jettySize=auto;html=1;entryX=0;entryY=0.5;entryDx=0;entryDy=0;" edge="1" parent="S6d78YjtUpr14IPoyVkW-33" source="S6d78YjtUpr14IPoyVkW-46" target="S6d78YjtUpr14IPoyVkW-52">
          <mxGeometry relative="1" as="geometry">
            <Array as="points">
              <mxPoint x="95" y="600" />
            </Array>
          </mxGeometry>
        </mxCell>
        <mxCell id="S6d78YjtUpr14IPoyVkW-46" value="Tambah" style="rounded=0;whiteSpace=wrap;html=1;" vertex="1" parent="S6d78YjtUpr14IPoyVkW-33">
          <mxGeometry x="50" y="460" width="90" height="40" as="geometry" />
        </mxCell>
        <mxCell id="S6d78YjtUpr14IPoyVkW-47" style="edgeStyle=orthogonalEdgeStyle;rounded=0;orthogonalLoop=1;jettySize=auto;html=1;" edge="1" parent="S6d78YjtUpr14IPoyVkW-33" source="S6d78YjtUpr14IPoyVkW-48" target="S6d78YjtUpr14IPoyVkW-52">
          <mxGeometry relative="1" as="geometry">
            <Array as="points">
              <mxPoint x="215" y="600" />
            </Array>
          </mxGeometry>
        </mxCell>
        <mxCell id="S6d78YjtUpr14IPoyVkW-48" value="Ubah" style="rounded=0;whiteSpace=wrap;html=1;" vertex="1" parent="S6d78YjtUpr14IPoyVkW-33">
          <mxGeometry x="170" y="460" width="90" height="40" as="geometry" />
        </mxCell>
        <mxCell id="S6d78YjtUpr14IPoyVkW-49" style="edgeStyle=orthogonalEdgeStyle;rounded=0;orthogonalLoop=1;jettySize=auto;html=1;entryX=0.5;entryY=0;entryDx=0;entryDy=0;" edge="1" parent="S6d78YjtUpr14IPoyVkW-33" source="S6d78YjtUpr14IPoyVkW-50" target="S6d78YjtUpr14IPoyVkW-52">
          <mxGeometry relative="1" as="geometry" />
        </mxCell>
        <mxCell id="S6d78YjtUpr14IPoyVkW-50" value="Hapus" style="rounded=0;whiteSpace=wrap;html=1;" vertex="1" parent="S6d78YjtUpr14IPoyVkW-33">
          <mxGeometry x="290" y="460" width="90" height="40" as="geometry" />
        </mxCell>
        <mxCell id="S6d78YjtUpr14IPoyVkW-51" style="edgeStyle=orthogonalEdgeStyle;rounded=0;orthogonalLoop=1;jettySize=auto;html=1;" edge="1" parent="S6d78YjtUpr14IPoyVkW-33" source="S6d78YjtUpr14IPoyVkW-52">
          <mxGeometry relative="1" as="geometry">
            <mxPoint x="450" y="600" as="targetPoint" />
          </mxGeometry>
        </mxCell>
        <mxCell id="S6d78YjtUpr14IPoyVkW-52" value="" style="ellipse;whiteSpace=wrap;html=1;aspect=fixed;" vertex="1" parent="S6d78YjtUpr14IPoyVkW-33">
          <mxGeometry x="315" y="580" width="40" height="40" as="geometry" />
        </mxCell>
        <mxCell id="S6d78YjtUpr14IPoyVkW-53" value="Sistem" style="swimlane;startSize=20;html=1;" vertex="1" parent="S6d78YjtUpr14IPoyVkW-32">
          <mxGeometry x="410" y="20" width="160" height="820" as="geometry" />
        </mxCell>
        <mxCell id="S6d78YjtUpr14IPoyVkW-54" value="Menampilkan Dashboard" style="rounded=0;whiteSpace=wrap;html=1;" vertex="1" parent="S6d78YjtUpr14IPoyVkW-53">
          <mxGeometry x="38" y="140" width="90" height="40" as="geometry" />
        </mxCell>
        <mxCell id="S6d78YjtUpr14IPoyVkW-55" style="edgeStyle=orthogonalEdgeStyle;rounded=0;orthogonalLoop=1;jettySize=auto;html=1;" edge="1" parent="S6d78YjtUpr14IPoyVkW-53" source="S6d78YjtUpr14IPoyVkW-56" target="S6d78YjtUpr14IPoyVkW-58">
          <mxGeometry relative="1" as="geometry" />
        </mxCell>
        <mxCell id="S6d78YjtUpr14IPoyVkW-56" value="Validasi" style="rounded=0;whiteSpace=wrap;html=1;" vertex="1" parent="S6d78YjtUpr14IPoyVkW-53">
          <mxGeometry x="40" y="580" width="90" height="40" as="geometry" />
        </mxCell>
        <mxCell id="S6d78YjtUpr14IPoyVkW-57" style="edgeStyle=orthogonalEdgeStyle;rounded=0;orthogonalLoop=1;jettySize=auto;html=1;entryX=0.5;entryY=0;entryDx=0;entryDy=0;" edge="1" parent="S6d78YjtUpr14IPoyVkW-53" source="S6d78YjtUpr14IPoyVkW-58" target="S6d78YjtUpr14IPoyVkW-59">
          <mxGeometry relative="1" as="geometry" />
        </mxCell>
        <mxCell id="S6d78YjtUpr14IPoyVkW-58" value="Simpan Perubahan" style="rounded=0;whiteSpace=wrap;html=1;" vertex="1" parent="S6d78YjtUpr14IPoyVkW-53">
          <mxGeometry x="40" y="660" width="90" height="40" as="geometry" />
        </mxCell>
        <mxCell id="S6d78YjtUpr14IPoyVkW-59" value="Selesai" style="ellipse;whiteSpace=wrap;html=1;" vertex="1" parent="S6d78YjtUpr14IPoyVkW-53">
          <mxGeometry x="43" y="740" width="85" height="40" as="geometry" />
        </mxCell>
        <mxCell id="S6d78YjtUpr14IPoyVkW-60" style="edgeStyle=orthogonalEdgeStyle;rounded=0;orthogonalLoop=1;jettySize=auto;html=1;entryX=0.5;entryY=0;entryDx=0;entryDy=0;" edge="1" parent="S6d78YjtUpr14IPoyVkW-32" source="S6d78YjtUpr14IPoyVkW-36" target="S6d78YjtUpr14IPoyVkW-54">
          <mxGeometry relative="1" as="geometry" />
        </mxCell>
        <mxCell id="S6d78YjtUpr14IPoyVkW-61" style="edgeStyle=orthogonalEdgeStyle;rounded=0;orthogonalLoop=1;jettySize=auto;html=1;entryX=0.5;entryY=0;entryDx=0;entryDy=0;" edge="1" parent="S6d78YjtUpr14IPoyVkW-32" source="S6d78YjtUpr14IPoyVkW-54" target="S6d78YjtUpr14IPoyVkW-38">
          <mxGeometry relative="1" as="geometry" />
        </mxCell>
        <mxCell id="_uijuu-Dv0WjZ4j0MpGy-1" value="Proses Lihat Laporan Prediksi Permintaan" style="swimlane;childLayout=stackLayout;resizeParent=1;resizeParentMax=0;startSize=20;html=1;" vertex="1" parent="1">
          <mxGeometry x="2890" y="90" width="480" height="440" as="geometry" />
        </mxCell>
        <mxCell id="_uijuu-Dv0WjZ4j0MpGy-2" value="Pemilik" style="swimlane;startSize=20;html=1;" vertex="1" parent="_uijuu-Dv0WjZ4j0MpGy-1">
          <mxGeometry y="20" width="320" height="420" as="geometry" />
        </mxCell>
        <mxCell id="_uijuu-Dv0WjZ4j0MpGy-3" style="edgeStyle=orthogonalEdgeStyle;rounded=0;orthogonalLoop=1;jettySize=auto;html=1;" edge="1" parent="_uijuu-Dv0WjZ4j0MpGy-2" source="_uijuu-Dv0WjZ4j0MpGy-4" target="_uijuu-Dv0WjZ4j0MpGy-5">
          <mxGeometry relative="1" as="geometry" />
        </mxCell>
        <mxCell id="_uijuu-Dv0WjZ4j0MpGy-4" value="Mulai" style="ellipse;whiteSpace=wrap;html=1;" vertex="1" parent="_uijuu-Dv0WjZ4j0MpGy-2">
          <mxGeometry x="112.5" y="30" width="85" height="40" as="geometry" />
        </mxCell>
        <mxCell id="_uijuu-Dv0WjZ4j0MpGy-5" value="Login" style="rounded=0;whiteSpace=wrap;html=1;" vertex="1" parent="_uijuu-Dv0WjZ4j0MpGy-2">
          <mxGeometry x="110" y="100" width="90" height="40" as="geometry" />
        </mxCell>
        <mxCell id="_uijuu-Dv0WjZ4j0MpGy-6" value="Pilih Menu Laporan Prediksi Permintaan" style="rounded=0;whiteSpace=wrap;html=1;" vertex="1" parent="_uijuu-Dv0WjZ4j0MpGy-2">
          <mxGeometry x="110" y="180" width="90" height="60" as="geometry" />
        </mxCell>
        <mxCell id="_uijuu-Dv0WjZ4j0MpGy-7" value="Sistem" style="swimlane;startSize=20;html=1;" vertex="1" parent="_uijuu-Dv0WjZ4j0MpGy-1">
          <mxGeometry x="320" y="20" width="160" height="420" as="geometry" />
        </mxCell>
        <mxCell id="_uijuu-Dv0WjZ4j0MpGy-8" value="Menampilkan Dashboard" style="rounded=0;whiteSpace=wrap;html=1;" vertex="1" parent="_uijuu-Dv0WjZ4j0MpGy-7">
          <mxGeometry x="38" y="140" width="90" height="40" as="geometry" />
        </mxCell>
        <mxCell id="_uijuu-Dv0WjZ4j0MpGy-9" value="Selesai" style="ellipse;whiteSpace=wrap;html=1;" vertex="1" parent="_uijuu-Dv0WjZ4j0MpGy-7">
          <mxGeometry x="40.5" y="340" width="85" height="40" as="geometry" />
        </mxCell>
        <mxCell id="_uijuu-Dv0WjZ4j0MpGy-10" style="edgeStyle=orthogonalEdgeStyle;rounded=0;orthogonalLoop=1;jettySize=auto;html=1;" edge="1" parent="_uijuu-Dv0WjZ4j0MpGy-7" source="_uijuu-Dv0WjZ4j0MpGy-11" target="_uijuu-Dv0WjZ4j0MpGy-9">
          <mxGeometry relative="1" as="geometry" />
        </mxCell>
        <mxCell id="_uijuu-Dv0WjZ4j0MpGy-11" value="Tampilkan Laporan Prediksi Permintaan" style="rounded=0;whiteSpace=wrap;html=1;" vertex="1" parent="_uijuu-Dv0WjZ4j0MpGy-7">
          <mxGeometry x="38" y="250" width="90" height="60" as="geometry" />
        </mxCell>
        <mxCell id="_uijuu-Dv0WjZ4j0MpGy-12" style="edgeStyle=orthogonalEdgeStyle;rounded=0;orthogonalLoop=1;jettySize=auto;html=1;entryX=0.5;entryY=0;entryDx=0;entryDy=0;" edge="1" parent="_uijuu-Dv0WjZ4j0MpGy-1" source="_uijuu-Dv0WjZ4j0MpGy-5" target="_uijuu-Dv0WjZ4j0MpGy-8">
          <mxGeometry relative="1" as="geometry" />
        </mxCell>
        <mxCell id="_uijuu-Dv0WjZ4j0MpGy-13" style="edgeStyle=orthogonalEdgeStyle;rounded=0;orthogonalLoop=1;jettySize=auto;html=1;entryX=0.5;entryY=0;entryDx=0;entryDy=0;" edge="1" parent="_uijuu-Dv0WjZ4j0MpGy-1" source="_uijuu-Dv0WjZ4j0MpGy-8" target="_uijuu-Dv0WjZ4j0MpGy-6">
          <mxGeometry relative="1" as="geometry" />
        </mxCell>
        <mxCell id="_uijuu-Dv0WjZ4j0MpGy-14" style="edgeStyle=orthogonalEdgeStyle;rounded=0;orthogonalLoop=1;jettySize=auto;html=1;entryX=0.5;entryY=0;entryDx=0;entryDy=0;" edge="1" parent="_uijuu-Dv0WjZ4j0MpGy-1" source="_uijuu-Dv0WjZ4j0MpGy-6" target="_uijuu-Dv0WjZ4j0MpGy-11">
          <mxGeometry relative="1" as="geometry" />
        </mxCell>
      </root>
    </mxGraphModel>
  </diagram>
  <diagram id="PAMC29JR34C_yKwWdjrT" name="Aristektur Sistem">
    <mxGraphModel dx="1500" dy="796" grid="1" gridSize="10" guides="1" tooltips="1" connect="1" arrows="1" fold="1" page="1" pageScale="1" pageWidth="850" pageHeight="1100" math="0" shadow="0">
      <root>
        <mxCell id="0" />
        <mxCell id="1" parent="0" />
        <mxCell id="vLRlwSHz0Y6urstr94TX-4" style="edgeStyle=orthogonalEdgeStyle;rounded=0;orthogonalLoop=1;jettySize=auto;html=1;" edge="1" parent="1" source="vLRlwSHz0Y6urstr94TX-1" target="vLRlwSHz0Y6urstr94TX-3">
          <mxGeometry relative="1" as="geometry">
            <Array as="points">
              <mxPoint x="357" y="660" />
            </Array>
          </mxGeometry>
        </mxCell>
        <mxCell id="vLRlwSHz0Y6urstr94TX-1" value="" style="verticalLabelPosition=bottom;html=1;verticalAlign=top;align=center;strokeColor=none;fillColor=#00BEF2;shape=mxgraph.azure.user;" vertex="1" parent="1">
          <mxGeometry x="130" y="630" width="47.5" height="50" as="geometry" />
        </mxCell>
        <mxCell id="vLRlwSHz0Y6urstr94TX-5" style="edgeStyle=orthogonalEdgeStyle;rounded=0;orthogonalLoop=1;jettySize=auto;html=1;" edge="1" parent="1" source="vLRlwSHz0Y6urstr94TX-2" target="vLRlwSHz0Y6urstr94TX-3">
          <mxGeometry relative="1" as="geometry">
            <mxPoint x="360" y="760" as="targetPoint" />
            <Array as="points">
              <mxPoint x="360" y="775" />
            </Array>
          </mxGeometry>
        </mxCell>
        <mxCell id="vLRlwSHz0Y6urstr94TX-2" value="" style="verticalLabelPosition=bottom;html=1;verticalAlign=top;align=center;strokeColor=none;fillColor=#00BEF2;shape=mxgraph.azure.user;" vertex="1" parent="1">
          <mxGeometry x="130" y="750" width="47.5" height="50" as="geometry" />
        </mxCell>
        <mxCell id="vLRlwSHz0Y6urstr94TX-35" style="edgeStyle=orthogonalEdgeStyle;rounded=0;orthogonalLoop=1;jettySize=auto;html=1;entryX=0;entryY=0.5;entryDx=0;entryDy=0;" edge="1" parent="1" source="vLRlwSHz0Y6urstr94TX-3" target="vLRlwSHz0Y6urstr94TX-34">
          <mxGeometry relative="1" as="geometry" />
        </mxCell>
        <mxCell id="vLRlwSHz0Y6urstr94TX-3" value="" style="dashed=0;outlineConnect=0;html=1;align=center;labelPosition=center;verticalLabelPosition=bottom;verticalAlign=top;shape=mxgraph.weblogos.chrome" vertex="1" parent="1">
          <mxGeometry x="330" y="691.9000000000001" width="60" height="54.3" as="geometry" />
        </mxCell>
        <mxCell id="vLRlwSHz0Y6urstr94TX-37" style="edgeStyle=orthogonalEdgeStyle;rounded=0;orthogonalLoop=1;jettySize=auto;html=1;" edge="1" parent="1" source="vLRlwSHz0Y6urstr94TX-34" target="vLRlwSHz0Y6urstr94TX-36">
          <mxGeometry relative="1" as="geometry" />
        </mxCell>
        <mxCell id="vLRlwSHz0Y6urstr94TX-34" value="" style="shape=image;verticalLabelPosition=bottom;labelBackgroundColor=default;verticalAlign=top;aspect=fixed;imageAspect=0;image=data:image/png,iVBORw0KGgoAAAANSUhEUgAAARMAAAC3CAMAAAAGjUrGAAAAkFBMVEX/////LSD/KRv/AAD/Rz7/Hgr/JRT/OC3/QTj/Jxj/IQ//EQD/GgD/IxP/3dz/Hgn/w8H/k4//Ukr/7ez/2Nf/paL/9/f/NCj/XVb/jIj/d3L/yMb/t7T/WFH/amT/cWv/fnn/mpb/8vL/5uX/y8n/tLL/npv/4uH/TEP/PjT/Y13/qab/09H/U0v/h4P/fXiwsfe9AAAHKklEQVR4nO2d63aiMBCATagXQOulVmvX7ra19uq27/92S24IZAJBt4WE+f7sWevxxE+YTJJJ6PUQBEEQBEEQBEEQBEEQBEEQBEEQBEEQBEEaZbttugVt42kYx+RX061oE1fvASWEBne7plvSGjbBIDGSWAmDz1XTjWkF+/GUEDIevcbJP1H80XR7mucwSlVIOeunptvULFe/g+wtI26i4KbLYWUuHBxDqwi2g+CzyVY1ybYv7pVcF3wYsnupP+5kWFleiEByXfzDR9xP/hC/HZpoVZM8/hGB5B7qez/FLfV+9ePNapKHYJJ86/jvC/zn3Y0IK5ufbVWTbAdjFkjozPyWpzV7y3S8/7lWNcnla5xcBFHwXP62jzhiYWVUK6zs3RxI7oMw+a7BbWUSv/oMCAsrWhA2MqNxvHZxIHlB2X2ztHnrC+uAKLH84Je/MXU04+NOyMAiUGwJeyulVh+7umfXH3Uz4xNOqgOFCDu218m1iD4LPpDsuzaQZE5i9pMGv0vyj8db9rOHsZ2TX6KX6m/ZQJJnfEOnBpKJE3p1J/KPuelNz0HE8pfX3YhWO9nlP23jXsaXOOknvyzhv2wE9p0zyvOXQZK/DCudJN1T4arbvbuW8QknMgLQ+ELrgV4WLJBMggf2n0onMo3Jj46ehm5lfMpJb/XFQ0bw5zH7Z/EqVa9WOBFfvq9/+ZMyvsZInaiMQl4Rgusgf/WUOim7SfRbqsVknKSRI5QjHz3KlDmpCKa7qkDeHnJOjj3MJfwlzE4sOl2puN/6QVDBicpEgvsNdLGbnBzerJIzfisSIJC3i6ITlbFOwKBocHLNrihikcQnKT8fSLa7B9KdJCObCbvIoc7T4ISPhKaGGak8S/bR9OKElv4ckJNe7yG5SiKg/yhzQkOLQLGPiKtOeiNKQuDlMicWgUKEHYedDICXS5zE2dwORK4WxV1xQkdXesaXR66o3TyGXXEyTDI+IsaKYFjZT9MVtX6HnOQyvjyZpfmuOUkzvttcWCmsqHXMCbg0IlfU7lT+0jknSVjJL6FtI/5fclxR66CT3FLrUl422VWhTjpJA8jnvQgvX7kVtW464aUb7Prg18ui0A111Ykq8TlOUB3prpMkcWUDSWBpvstOegNCR8DL6EQHneigEx10ooNOdNCJDjrRQSc66ESnG04GcEmXwcm4A05mA1b0qY/1YCfbiMKq2sPZTtKCSG1OAHIi5hDi25Pb+xOc6WQlCyJjYO5Id6Lmmr7ObPQ3c56TdPHi8kKfY9ScyDnJhdVie4Oc40Quck34Itc2mhbmogtOZmHl9o+WcLoTrfxtXlizyDmx3P7RCk51Igvqc4vmatup2i12dLIC18LayolOZEH9qFBckVsDPToxrpm2k5OcyIL6KbBanlkrV05K19bbyAlO1PZAQ1XnPN2pzZ0AVbdtp64TMpxXVf+qndrzdeJko4ed1lPbCQEK6ouIGi32RupE8WeB+k7Agvoie75Tm+NAkXCBOk527xNivetkPuFGnCgmL1DDiSqot9r0uNpwJ5ETmw4KWDsRBfVjy11sIn9p+6SAAUsnMmpa7nYUGUnfayeFs2IqeLmLeV/8vPbYiXZWTBlqIJQEEsPcY+updrKdAmfFGJHbUfiGDl+dGM+KAZnJbUsif/HTSelZMRqXcmijMhIvnVScFZNHbTE9ZiT+OSG/JsXK1jKeA22DsodOxjUmC8WO08JGdg+d8MlCu0CyyAcSiY9OwjuryUK18UCbI/HMySs7UchukA8EEolnTg4i9aoe8ckdBxNIn2dO2AEDFgdgyr3IhslW35wcT6ozD/ySjA4OJBL/nPBTqcvyepnRmVdtfHSSnqsLpW3y9D+g7CTFTydqwlGrLVnaLP/66iSdT8ou9apAUrH8662TpF+WtSVp56LqSKoyOo+dpLFDFZrY1pF47YRdGjJZlZvarIaGnjuRgxoaxxQoXDMQuusEOugEQAx+rQKJYBM56mQxsFr/5cwIu1Qs55h4ahO+ntO2pjgEdY4lJ/BRMcDHioKlwI1D6jTkaXJWh1RWn/fIKRa2uUdF3VEWOydijSxTAOkiqj6tMqzYOAEKZd3E8pDKaidLqKDaUaB6V50qJ2ogZJe/tB9RDlBeoFjhxHYg5BC5+nmQUifuFNTXQhU8m+oUS5y4VFBfD3XasGFmxOjErYL6uqg1PfD3NjlxrKC+PiVxAXZSHYc8wNh/QE4cLKg/CVOeoTuxy2v8AM5HNSdyH49jBfUnA41bCk5K9vH4irbBL++kxnjaI7R5kIwTp07x/6/kN/hlnIAPxugK2Q1+qRPjgzG6wnGDn3Ti3tNj/j/HR7G+Ubqut4/HX+SzH8I1IWvi4NOovgexpUni3FPLvgt+y4iqWXxMukLkaE4+BfEbeRo6+rTMb2XboaENgiAIgiAIgiAIgiAIgiAIgiAIgiAIgiA+8A8BG3dQqE7bQgAAAABJRU5ErkJggg==;" vertex="1" parent="1">
          <mxGeometry x="450" y="693.2" width="79.64" height="53" as="geometry" />
        </mxCell>
        <mxCell id="vLRlwSHz0Y6urstr94TX-41" style="edgeStyle=orthogonalEdgeStyle;rounded=0;orthogonalLoop=1;jettySize=auto;html=1;entryX=0;entryY=0.5;entryDx=0;entryDy=0;" edge="1" parent="1" source="vLRlwSHz0Y6urstr94TX-36" target="vLRlwSHz0Y6urstr94TX-38">
          <mxGeometry relative="1" as="geometry" />
        </mxCell>
        <mxCell id="vLRlwSHz0Y6urstr94TX-36" value="" style="shape=image;verticalLabelPosition=bottom;labelBackgroundColor=default;verticalAlign=top;aspect=fixed;imageAspect=0;image=data:image/png,iVBORw0KGgoAAAANSUhEUgAAAP0AAADHCAMAAADlCqUFAAAAflBMVEX///8BteYAteYAsuUAseV70/Dz/f4At+d10e+25fay5PV70e/c9Pv7//9kyOyI1fEfvek/xOud3fPj9/zq+PyF1vHD6/hPxuyi4PRhzO7L7fnZ8/u05vaf3vTS8Pri9fxAv+mQ2/PY7/pOw+s1u+iN1fEtwep4ze5/1vHL6/gJWTuqAAASQElEQVR4nO1daXuiPBcekkiUSgcVWbRVedrpO/P//+DLTs7JQkAU69XzrZYlN1nOdufk168f+ZEf+ZHHljA67OZuw2zyl9FcgnjvRce523J3yRgpxKHlNzjN3Zw7i9MJIZSHc7fnrrKmRMDvsP3cDbqhuEvOU7DERRA9fZ2rabeXQ0BzgPws/OQh9MvZGndryaiTQyU08LvfflMHoM/ma94o2Z2i1Xa/TNM4TtPlIvOiw9pVXOemdTcTmna/phA9W92t3ddKeEiWG14rK1EID9Itujgf9c0YJzRpfw4AeMLW94UwUnbR4sJzoIWeAjO3/oFu4PVbxxEuo7ld4x62acDhzYR/A6vvuN3kyGXc4gT+De7IGPx3sIrrb4d+V82ZR5Ld9uIUyLXAK/Rg5Idc+j/FwEu5iNbOOooey/jxo5j0Qy/QvYu3/cfwHeonEIdnTe/7C4dR7s0AUiPhNsiXtH7o+brGEvFGZNEZbnRoUC375w0tzf9oFqSyhAuuHq6ysBS6K/6G9t/U4l/m3b/i9QfjD7EShHtr7JRLHXay7PsSP70c9rT9I54DLRR/a409V3aKtSqRZr4Bfo65vZrM7/isAmZqLgSv7qyl9dgvIAufisw89cPUut9lM6cR9zIEPpBZnX6P263YlfGjXaWONspCKboPegdxU3OfFVYtpawV7TBd2Y8f/Ar2dk/EggjOiQJ4DtsJ4uV++3Y4ngs5acGvJXPPXujLPSF3kug7xKGMv+6js+v3PyZXGrFyCJUjR2f5zYzeX2hGPXGY87E/DViN3lVDiDJyiV9fPwLKTEsL0U+nG4qbapQ0pR/bs1WXNyK7OYVRlK7OxRrph+ckdrT4CZsj3BVuVA3Ku50vT5bQ3fW5UgHSICKU78HQOWpXV4oDJfeQc6BsDgu21gM+CQgPPtK9F+GuJyyW4hiRaoElNDhMi8tK1krwLEjsvQ6PlUYblWc1oSrzNUwl+PlXmsPUUfV8PlqzIR5XF7NDhg7RhG79FPnPxJklxrtT9TxNz/13dqI17ghdaG7BepGQOeJ8oWyU5xNwoN456FZxg+W64+ilifbSm4n/Kvc8Ww4NM6w0+pI4hkx1gnI7M3j3C0W7h3fCXqPCjNkqfwO/FBlkVkwhibxEByOIBRoFThxjxsIDX57Qe2f0T5JyppsxwbUvddc7Zn8VWoWE3jm1JYUhCEvHDD9f7dQRGOuWBa459M8oEKMFh6DGmtk7tcIjTs9Y3kL0qX/Pmb+i2DIZ6V4e1H5rb6ruAEKIhASb18X2TkmdMECNHc0nOGq8dt7Tl2eKzL0yduTcxdV5QcaWmGsfKBe1tfPZc9tZ+dUIu0NOCw1XQi/jZ906YNSRbPx+9BoT8Wt0Q2xFyjhdFUwO39PNJ3fwI3u0p5zxrDviipbYiYe/+9W+tb87rT4BCtJjOHmaxAm/til94iIeyURRlQ/40B77RZf0uXlQf0uhlTmRi5EiDW682L+owd88rou6frIMUgZ70zzxdX7xzaN776jrp/Kt/7EBz9UFN2+dz/Fh10/nWqOQhdHeOekyG+zGzt4b7Po+e3yAwHiVPrBlInmwG3M44IunZMyigIEhI7/XkRwIma45KoFjjvBBEUyzSGaETudLcZVObqzwFrfqel8RKOPKabWVg0olJzKXG5v5LoypTNf1u4tqNFMZjb/EFxK+iIOSBsz+TtUctcBtAle4dkjeiDp1zWIU3ltJiawq6eGvI8+7NXkZ6NnpFvy9ju5EKEu7xS9MvhQX3o2rBwe+8zHRYz0DUS3HT+I/iZe8v3wxJuv5O6YywMCfbo3p4WiSkvKjYSzfkawEPavJOGKfClS2QnQLrz/5hADNnG7NU7N1rLArtEItq6n3MKwBO3K63THaTGa/aMe9yymfUAfsvCVc8yYkR2YD+Lmo73UubTGepur9wz5gDG0LmzJxOnrs61J4y2I40WCCDjruOZMXXDZlIEFUpYXhOkCU6r7mkdGvK1M8fhIooBdtnHQneDf1CUslY9YkijG4bgzCaxINxXMWGjXrOFOMKkG2DeJiJicDup/gQejvuyZL/xwg65RpN9hMvhM4ZWVn8TI8vtvYU/1RFDsBjEYyNty+S03M0Mn3wrqb3JxjcTOL37gtfuKAUYgJbaM27+Xjx6iF2eT0QN9Ll2JQMtFxWnCzYN9jQpchQqYVJSVSfOiUUR21hFLnl2R3jjoXT228ZA7fs+IvFd4UlMvN/coIoc89HR5nB+xtMNy3EpdzYI711NPxzl3KH6CRT18P9fx2v7r/UEeO4PcMjh7xzBsByvF36yBSLn8Q+g5Du4OD0C/FBLwqx5yZdG0BPEj/eMfb82QQGVJM0zThX7ZUNiPEXE77zXpaQ6vaZZJF4Z0IQojLxkTbsggAE0p07i12Gq07X+Z/19+P0Tiz3W8whfi4A8V35/qYsY3eg92jZKOlcaIBn5shyZ0p8D7q+wB++fBgVLlo6tuZPAsleBZkM3DAt2AKDnSoUc7JiswppUlK7F/e3UnApaRFZbGaz0TYwNAtNApsvl0kQycsmGuLY754ZS9xQIpwLh1MBYUJcUJ6o1y7QMJOnWyefm/Fd89v25eX4XvtAPXdYt2TwkuExTe35m8miA1x6blcTgx/u4pOQGDWrYcCd5a44nJpiG8lwOTpS3hhItConRaPJJDVZl71UQm7HPw3KOdkFuiwGFO9H9gv+r7rXSPA4jGm23HXkyeo3OnCtKNh4mO62APVbhovwN4zhPYPyCd6jtKNKxAb01P+0zEu0cML3OOrdfJn3t52KwETX7/sQaLgIxStmkZi0Kc64y2GVKw56hjcROCypwntwoH/PF0Pg+K6pbxT9mSOel1uWJQgCm+w0v4TkzK6XoVxkE/bZrwvsOwz779uZQ2l/zfS+Y5htIg/eSmX16yNk3tL7b2LhX1y4gjWs4v6IugOWGf9XplUI5cyyl+bZeMo19CtL2p2zbkZr/gwVX1ZSuN63P1P8ej2bnuS5JqL6NUKf8eBK/jPGr0q7VFkeva+4t2i1EyrU8Dwvka6KO99MWRUBiTRYITjUxmmgoaePSdDib7AwF6s0J8URenqvdwToQ+Bpa/28sDOvgErvg59Q+XrQd/u8CFi3VxC36ZDD/0ctbEH4n8Dcl4telLORzH3uYHo0VeouLVNvJ7Qzzi9dEUyi4TzVOjBiqZGD4z8AZXKGvTESQuJu3IMhJ1F9IQjKdHz5tNtixF5ilue1aFATxppn9nIWPSaPf3gElOhFw36hjriR21bS/p2i54uwx2QohPWTaqmnmrNHCX0b46+/WDNI0n3Caftezg57GM6HfpmMW3rQZRWZYdepUQbE6tdaDJWqUyWj4xwXcuuzeYF6/Y36xbCKglK9D5AP4CGJ6M/taS7DKBX2ZhRO9Lfq7V4HaeL7N2L/gFfrK2sE1i3qxOLNR9uuBjAx5HRRw36Mutm7vt25BMWvHhn3Ws79COSSkjfqy6BPs4Aio+MvvEVSUk1EPred0WpLm9fW9AiaLBMdqpXX4UehjeUo+dq9IS7BbrwLWWgqcKaH4jCK6WaQU5lQY/YylP6KvQnYE4pufxXj3xCSlC0pbDXO3Z0+r7eJO9jZlhRhXSJc61XoYd2nDKsCdFbe3iitQMhEla9R2frNcvAWrZ0CXVQkaWr0NvYcRbmoBk97sHY7OW0i2C4URDAERfuKvTQjlNHK0WlSAZsZlGjp6Tx3gX0RBRBBXiBxIBHLI1r0INMXmlDKkSM6g0p1taNfMEg3Xjt4BHQQwddVP9RynGdZDD8rkEPBp+OvgHHh30Wp1v1OG8fcdm2rew0XhytRIEf2I2y6mgZZedfgz4CvCdNNgPUKxuQxhE0XvjWTh/WWotmawdIGC27JRA42deghyFdjesOM5j2cSNg7YTdKG/0qtnSzael77u7UzMQ3I4qKPbSFehRAl9DRDnBhI+1EwFtvU63slajGdBHm6+AO4yxDlULVAxBXYEe1G/TRuyAwh8Q0EaWbjv2Sb1vw4y+3IZTsG3bNa5lG0zU97BgqVaVgwql9hMfoe/WmHqKGee927qDrRHSVLWYaN5D31UfsYMfydraw17OprN0y/HTKZw42ULZdRTsdrA1rHvCRHNvPHq4XV5fqBOxm2yHPkZ/6hQMiuvhwH7xdbzOw12efD9M2vkHVp7x6GFyUs9YQ3k82/2LkofbGQ6lVamN6VYLQ7dO0GIvWhciBfNkNHpUj+mivxJ9JktjV0K/6zq/cJR70Iu2iGAsUkidGI0eYjKVH4MlUm3LtMnRjc68KEzGHvTKfeeEIo07Fj00Yow1WtFGFkuVL6N3Ozx5Y/vQF3FMXAmf4eOzRqLHxdCMsxmV9rNTem0W02kblrXZx9xY12YxaZM0OMasrZNUHHPHAsnL+GqeOAz9AtGwjCs54mzZFdLZLhtpG+an7W9//fC3VtrBFSZpUJ+h5Gx+K3zQ7KVKW7/sh6B/Q3GTi/lyWKnxzmdOueFuN+lOrzWeaT07LBJU2fBbc9Olc3f6QrVSodRvTNB20XEeFvbbFqmf70tYDPFZJhZJeanzvytzS4oUW1lv6EzK78rVfZM3F9msYXjn8qiiBbOLvIuYbqy0Cd66O8+pY1fJUVE4wDZWtUDFDggddRTGbOIv5IoR9oxrXCO6OAPmG23OSZQUMHvDRSpRTIad/+Ni0VznSxfi7HbfHfJVb4EiK0akohwmwUq/XDSs7Z4VJVB0TvULvlAQzr/SbYTRoUdjfeQmKuxFbYYB4FVl6QmlqWW0I5bQa5ZbE/qKscqX8JuvmAH9SXPw+OAjfFxFiUvS0WeNEsrH12uSgiY2XnVj/gVS0dFHJ9QA9JmyClqps4Yu2pKZWOMP9oc+03cr36mJEvWiL9/JBX/XhP6P+mmjDgY/c9XDSjJpT2Zf2r/u6LwFG/TFK7sRNwJ931lTalkr4Rff0oz+pIrSqR1rK/SFtAvOYPR07BZq9Umf+QJqRq88x0PNKrVFT9vTbwaiv+aY0FB9fpEZva9eeZTUT1v0Xb3iYegp3V5hpKqPNzaj1xxgo1T51iO/pdgNQs/sTRS1KNbvHvS6qqiqoBJG34R6ZSu9OQfDHn2uK5KrvRPFme5G9LKybxqjUPkIPV0Wic0se9lIBQ2b+KIt+mJryxRVkdwFbooRvbY0mSpKgNC3isFfS6WeNkPQD7BLe+UQQ4fRiF6l7CtRkL516H9JmqM5BsQCfW4fyEzPK8RfXUT8JvQHMPBFNoRK5RvQo3MHCavmcC96QhnfT1wuwn+Lu/rRJvSgyzjIICpUvgE9YlIQVgUYzOgLSzT2bhCE9k/Lpoy0Ab0rJiPpEhSHU6h8E/o3eOAlq8ayCf1vRi/ZzaqEhF4aFMlGA3qg7HMwICkq54VM6KPB6JP9jQs9hod9HBjQQ66rixorqXwT+gSN/OqlJvR3kVD/hc/imlekQUJwzICk8k3oUfkTVv06O3qDAGVfVnYxc+AM6PFxUbWp+8DoAU+iWqXhIXqfaM5o0fsJtvVqzsUDo4dU6NIrPRpP2MCWbhLmsjsfMulw7abuzwOjXypWeGE4ECmJig8T5jwIOCdyfK6lsT4ueheQk2qvDFY2RCof+3j1vh7ZT2rJRo+LPgEaut6TC5OCSOVbRzdoY7c/LnqgoxqXDlKEkcq3RC9UgH5Y9PBE6nYDO1gM0I4gO/RE4E49LPrfEGa7JRcOfdBcu4i2SFl9VPSQFNlxIjH9U1T5FuiLXX3CLY+KHip7YUcXYgmLKt8mk8VBId9HRQ/nt3AeraFymQF9ncYMFpA48KDoQ8hEDsqiUWXhqAj8B+zxlGK6rBPKPy+LCLuTD4o+QWF8AQc0XkSVjy3dfbtZMfp3Oqoc6cdE739oxzAWQeWbPFy1PCb6tfW5fqLKfxb0e0ubFbb4SdBLLC+TdCr/SdBHuvNVFCLU6H0S9LjyuFE6lf8c6ENtETVl57dc6edA/z7gCD9HUPlPgR4pe0VsBv3ScBGeAj2s2UmkOnJFhTTwLRqV/xToFwBEk3AU5R3TFKqfnwE9VvaKMlZHNBvqKmfPgD5Cm9hU/CS4za9R+c+AHip7NSf3LzIIqkjdE6DfIWXPVRfBIme5DihV/hOg30Jlr97DhNeGSuV/f/T+BRXPUvNiU0jFr0YI4ufboTftTri7HGCla0bVl61QQewy3r9E9/YXt/LQHXOjP3lQNJRoF13mFWvjAf3WT7o5ozue5nyDH/mRH7mb/B+Ppe3JBMpaqQAAAABJRU5ErkJggg==;" vertex="1" parent="1">
          <mxGeometry x="570" y="699.05" width="50.85" height="40" as="geometry" />
        </mxCell>
        <mxCell id="vLRlwSHz0Y6urstr94TX-43" style="edgeStyle=orthogonalEdgeStyle;rounded=0;orthogonalLoop=1;jettySize=auto;html=1;" edge="1" parent="1" source="vLRlwSHz0Y6urstr94TX-38" target="vLRlwSHz0Y6urstr94TX-42">
          <mxGeometry relative="1" as="geometry" />
        </mxCell>
        <mxCell id="vLRlwSHz0Y6urstr94TX-38" value="" style="shape=image;verticalLabelPosition=bottom;labelBackgroundColor=default;verticalAlign=top;aspect=fixed;imageAspect=0;image=data:image/jpeg,/9j/4AAQSkZJRgABAQAAAQABAAD/2wCEAAkGBxANDg0NEA0QDQ8OEBAODQ0NDxAPDQ0NFREXFxURFRgYHSggGBolHRcTITEhJSorLi46FyAzODMtNygvLi4BCgoKDg0OGhAQGy0mHSYtMi0wKzcwLjArLS0tLSsrLS0tLS0uLS8tLS0yLS0tLS0tLTYrLS0uLS0tLS0tLS0vLf/AABEIAOsA1gMBEQACEQEDEQH/xAAcAAEAAgMBAQEAAAAAAAAAAAAAAQIEBQYHAwj/xABOEAACAQIBBQkKCQoFBQAAAAAAAQIDEQQFBhIhMRNBUVJUcYGRsQcUIjJhcqGiwdEXM1Nzo6Sys9IVFiQ0YmOCkuHiI4Pj8PElNUKUwv/EABoBAQEAAwEBAAAAAAAAAAAAAAABAgQFAwb/xAA4EQEAAQICBQkHBAIDAQAAAAAAAQIDBBEFEiExURMUMkFhcYGhsVJikcHR4fAVMzSiIlMjY/Ek/9oADAMBAAIRAxEAPwD3EAAAAAAADR5Zzpw2Dbg5OrVW2lSs3F/tPZHm2+Q97eHrr29TwuYiijZ1uUxufuJndUqVOiuF3qT69S9Bt04OiN85tSrGVzujJpsRnLjanjYuovm7U/sJHrFi3HU8pv3J62BVyhXn42IrS86rOXaz0iimOqHnr1T1yxpzb2tvnbZUUU2tja5nYD6wx9aPi16sfNqzj2Mxmmmeplr1cZZdDOTG0/Fxlb+Oe6fbuYTZtz1M4vXI3TLcZP7oWLptKrGniY791uVTrjq9U8qsJRO7Y9acXXG/a7nIGc2Gx6tTk4VUryoVLKolvtb0l5V02NK5Zqt79zdt3qbm7e3R5PUAAAAAAAAAAAAAAAAAOZz4y5LCUo0qUtGrXv4S206a2yXA3dJdPAbWGtRXOc7oauKuzRTlG+XmTZ03MZuCyNicRHTpYepUjx0rRfM3ZPoPOq7RTsmXpTarqjOIYeLw1SjJ06tOVKa16M4uLtwq+1eUypqiqM4Y1UzTOUw+DZkxVbIqrYFWwKsKqwJpVZU5RnCThODUozi7SjJbGmSYz2SROW2HruZGcv5QouFSyxFGyqpalUi9lRLtW8+dHLv2eTnZudSxe5SNu90p4PcAAAAAAAAAAAAAAAAeX5/19PHzj8nTpwXStL/6OphIytuXi5zuNdmzgI4rGUKM9cG3KouGMYuWj02S6T0vV6lEzDzs0a9cRL2CEVFKKSSSSSSsklsSOO7DS54ZMhicHWulp0YSq0pb8ZRV2uZpWf8AQ9sPXNNcdrxv0RXRLx9s6zkqtgVbAq2FVYFWyCrYG5zNx7w2UMLNOyqTVCa3nCo9HXzPRf8ACeV+nWty9bNWrciXtxyXWAAAAAAAAAAAAAAAAHk2e7/6liv8r7mB1sN+1H51uTif3Z/Opr8iZReExNHEW0lTl4UVtlBpqSXls36DO5Rr0zSwt16lUVPYMn4+liYKpRqRqRfFeuL4GtqfkZyKqKqZymHXprpqjOHPZ75w0qGHq4aE1OvWi6bjF33KElaUpcDtey26zYw9maqoqndDXxF6KaZpjfLyxs6TmqtgVbCqsCGwKtkFWwr75Mf6Thvn6P3iMa+jPctHSjvfoE4zsgAAAAAAAAAAAAAAADyXPj/uWK/yvuIHWw37UfnW5OJ/dn86mhbPd4K3IqgFWwKthUMCrYFWyCrYVVsD75Mf6Thvn6P3iMa+jPctHSjvfoM4zsgAAAAAAAAAAAAAAADkcu5lPGYmrie+tz3TQ8DcdLR0YRjt0lfZfpNu1itSmKcmpdwuvVNWbX/Bw+W/V/7z0577vn9nnzL3vL7o+Dd8u+r/AN5Oe+75/ZeZe95fdHwbPl31f+8c993z+xzL3vL7o+DV8u+r/wB4577vn9jmXveX3R8Gb5d9X/1Bz33fP7HM/e8vu4PG0Nyq1qV9LcqlSnpWtpaMnG9t7YblM5xEtOqMpmGO2VFWwKthVWwMjJb/AEnDfP0fvEY19Ge5lR0o736EOM7AAAAAAAAAAAVqTUU5SkoxirylJpRilvtvYIjPcTOW9yOVs+6VNuGHpuu1q3STcKV/Jvy9BuW8HVO2qcmncxlMbKYzc7iM9cdN6qkKXkp0otevc2IwtuOprTirkvg88Mfyr6Kh+Ey5ta4eqc5u8fRV545Q5V9FQ/AObWuHqc5u8fRDzyyhyr6Kh+Ac2tcPU5zd4+irzzyhyr6Gh+AnNrXD1XnN3j6IeeeUOVfQ0PwDm1rh6nObvH0VeemUeV/Q0PwDm1rh6nOLvH0Q89co8r+hofgHNrXD1OcXePor+euUeV/Q0PwDm1rh6nOLvH0aGvWlUnOpJ3lOUpzdkryk7t6vK2e0RlGUPKZznN8mwirYVRsCrYGRkv8AWcN8/R+8RjX0Z7mVPSjve/4yo4xunZ3SPmcfdrtWtaicpzdy1TFVWUsLvqfG9C9xxuf4j2vKPo2eSo4HfU+N6F7hz/Ee15R9DkqOC0cbNbbS51bsPSjSd6npZT+djGbFM7mZQxCns1PfTOvhsZRfjZsng8K7c0vsbbzAAACJNJNt2S1tvUkgPLs7M45Y2bpwbjhoPwY7N1a/85exe06tixFuM53uVfvzcnKNznWbDXQ2BVsCjYFWyKq2BVsCrCoYFWyCrYFWwqrYFWwKtkGTkr9Zw3z9H7xEr6M9zKnpR3vfcf4nSj5XSf7HjDvWOk1x8820XAgxVMZuLTTs1sMqLlVFUVU74JpiYylt6FVTipcO1cDPq8Pfi9biuPyXPrp1ZyfQ92IAA5fugZSdHCqjF2niW4Ph3JeP13iv4mbWEo1q856mri7mrRlHW80Z03MVbAq2BVsCrZFVbAq2BVsKqwKtkFWwKthVWwKtgVbIIAyslfrOG+fo/eIlfRnuZU9KO977lDxOlHyulP2PGHesdJrbnzrbRciobIqLkGZkuprlDh1rn/32HX0Reyrqtz17fz86mviKdkS2R32oAAPM+6JitPGqnfVRpRjbgnK8n6HHqOnhKcrefFzMXVncy4OWbNpqqtgVbAq2RVWwKtgVbCqsCGyCjYFWwqrYFWwKtgQQANtmng3iMoYKmvloVJeZTenL0RZ53atWiZelqnWriHt2UpeDFcLv1L+p8npavK3TTxn0/wDXdw8bZlr7nBbatzFUXIqLkH0ws9GpB+VLoeo2MHc1L9FXb67GNynOiYbw+wc0AAeN5x190xuLn++nFc0Hor0RR2bMZW4jsca9Odyqe1rGz0earYFWyKq2BVsCrYVVgQ2BVsgq2FVbAq2BVsCpAAAeqdzHNyWHhLHVouNStHRowkrShQbTcnwOVl0JcJoYq7nOrDfw1rKNaXTYytpydti1L3nxePxHLXZmN0bIdm1Rq0se5pPVDZM1VuYqi5MxFyZq6GnK6T4UmfcW6teiKuMZuVMZTksZoAeGYmppTnLjSlLrbZ3IjKMnDmc5mXybKirZFVbAo2BVsKhgVbAzMJkfFV0nSwtapF7JxpS0H/Fax51XKad8s6bdVW6GS81Mociq+r7zHl7fFnyFzgh5qZQ5FV9X3jl7fE5C5wVeaeUORVfV945e3xOQucFXmllDkNX1feOXt8TkLnBH5o5R5DV9T3k5e3xOQucD80co8hq+p7xy9vicjc4Pvhcx8o1Wl3rua49WpTjFc9m31Ik4i3HWsYe5PU7fNnue0sLKNbEzWJqx8KNNK2Hpy4bPXN89l5N81buKmqMqdkNq1hYpnOrbLp8bi73hF88vYj5nH6QiYm3anvn5R9XUtWeupgXOI2kXIIIqLkzVBFRcxG9wTvSp+al1H2WBnPDUd0OZejKuX3Nt5gHhFRWbXA2uo7kOHKjZUVbIqrYFWwqrAzcj5JrY6sqNGN3tlJ6oU48aT3l2mFy5FEZyzotzXOUPUchZn4XApTlFV6y1utWStF/sReqPb5Tl38VMxMzOUOlaw1NPbLdzxsVsvLm1I5FelLNOynOfztbkWKpU7/XFfWjz/VqfZllyE8Tv9cV9aH6tT7MnITxO/wBcV9aH6tT7MnITxO/1xX1ofq1HsychPE7/AFxX1on6tR7MnN54o/KC4r60P1ej2ZObzxVllHgh1s86tMezR5rGH4yxq2JlPU3ZcC1I51/G3r2yqdnCNz3otU07nwuaj0Rciq3IIMVCKrcgi5Fb3J/xUOZ9rPsNG/xaO75uZf8A3JZJvPIA8RyzS3PFYqHFr1UubTdvRY7Vuc6InscW5GVcx2sFsyYqtgVbAqwqaVOVSUacIuU5yUIRW2U27JdZJnKM5IjOcoe05u5Hp5Nwypqzm7Sr1FtqVPctiX9Ti4rExETcq3Q7FizqxFMb1q1Zzd3s3lvI+UxGJrv1Z1buqODo0URTGx8zXZgAABFyCLkVDZFRcgq2Y5qgiouTNUEEXJmqGzFUNkVVsmY6LBxtTpr9ldh9tgqdXD0R2Q5V2c65732Np5gHkmfuG3LKFZ71WMKsemOi/TGR1cNVnbhysTTlclzjZ7vBVsCrYVDA6nubYFVsfujV1h6cqi4N0fgx9Dk+g1sVVlRlxbOFpzrz4PTMoT1qPBrfOfI6Vu51RbjvduxTszYZyGwAAAEEVVsgi5iqLkVFyCLkVBFQYqi5BVsiouRUXIqacdKUY8ZpdbMrdE3K4ojrnL4pVOrEy6ZK2o+9iMoyhxklADge6lgtWGxSWxyozfP4UOyfWb2Dq30tHGU7qnnzZvNFVsKqwKtkHe9yVf4mOf7FDtqGnjN1Pj8m5g99Xh83a4z4yXR2I+L0hP8A9FXh6Q7lroQ+BpPQAi5BFyKi5FRcghsmaq3MVRcggioIqLkVFyCGzFVWyKgis7I9LSqaW9BX6XqXtOtoaxr39ed1Mec7I+bWxVeVGXFvD6xzQABg5bybHGYath5at0j4MuJUWuMuhpGduvUqiphcoiumaXiOKoTo1J0qkdCdOTjOL3pI7ETExnDkTExOUvgyohsCrZB33cj8fH+bh+2oaWM3U+PybuD31eHzdpjPjJdHYj4vSH8irw9Idu10IfE03oi5FRcgq2RUNmKouQQRUXJmqCKi5iIuRVWyKi5BFyKgioIOhydh9zppPxpeFLyPgPs9G4Xm9iInpTtn6eDlX7mvXs3Mo6DxAAADmM8M0449brTap4mKspPxK0VsjO2x8Eu3e2LF+beydzXv2IubY3vLMp5OrYSWhXozpO9k5LwJebJapdDOjTXTXtplzqqKqJyqhhtmTFVsDv8AuRfGY/zcP21DSxm6nx+Tdwe+rw+btcb8ZLo7EfF6Q/kVeHpDt2uhDHNF6obIqLkEXJmqLkVW5MxFzHNS5M1VuTMRcmaobMc1Q2TNUXJmIIold2Su95LWxETVOUbZJ2Nrk7JzTU6itbXGHl4WfRaN0VVFUXb0bt0fOfo0r+IiY1afi2p9C0QAAAAAKzgpJppST2pq6YGFLImEbu8Hhm+F0KTfYZ8pXxlhydHCFfyDg+Q4b/16XuHK18Z+JyVHCPgyMJk+hQ0nRoUqOlbS3KnCnpWva+ite19ZJqqq3ysU007oYeN+Ml0fZR8tpD+TV4ekOhZ6EMds0Xqi5BW5jmqCKhsittSdHRjfc72V76N72PprNWC5OnW1M8o9lo1RdznLPzW0qH7r1D01sB7n9WOV7t8zSocNL1Ca2A9z+ple7fM0qHDS9Qa2j/8Ar/quV7t80aWH4aPqDX0fxt/1Mr3b5pTofufUEVaPmco5P+ple7fN9e9qfycP5YmzzSx7FPwh58pXxk72p/Jw/liOaYf/AF0/CDla+M/E72p/Jw/liOaYf/XT8IOVr4z8V4U1HZFLmSR60W6KOjEQxmqZ3ysZoAAAAAAAAAAADUY74yXR9lHy2kf5NXh6Q37PQhjtmi9UXIIIqCKgxVFyZityKi5FRciouYi1HxoedHtPSz+7T3x6pV0ZdOffOMAAAAAAAAAAAAAAAANPj/jZ9H2UfK6S/k1+HpDfs9CGNc0Hsi5MxBFQRUNkVDZBDZirIwWEdZvXaK2y9iN7A4GrFVTtypjfPyh5Xb0W47WfLJMLapST4XZ+w7FWg7M05U1Tn4fRqxi6s9sQ1OIounJwltXU1wnzuJw9di5Nuvf69reoriunOFaPjw86PaYWP3ae+PVa+jLqD79xgAAAAAAAAAAAAAAABqMpRtUb4Un6Lew+X0rRq4iZ4xE/L5N/DznQxLnNze6CKi5jmIuRVWyKi5BFyK3eR2ty1bdJ35/+LH1mhppnDbN+c5/ndk52Kz5RnHVazT5ca0ocOi7819XtPmdOzHKUR15T9vm38HnqywcLHSqU1wyXVfWcnCUTXfopjjHq2bk5UTPY6Y+8ccAAAAAAAAAAAAAAAAYuPw+6RuvGjs8q30c7SOEm/bzp6Ubu3se1i5qTt3NMz5WdmyXRVuYiLkVDZFQ2Yqi5BBFffCYuVJ3WtPbF7GbmDxtzC1Z07YnfDyu2ouRtZ8ssK2qm7+V6jr1aep1f8aNvfsa0YOc9stXWqucnKTu3/uxwL16u9XNdc7ZblNMUxlDZ5HwjX+LJb1oLycY72hsFMf8APXHd9fo08Vdz/wAI8W1PoWkAAAAAAAAAAAAAAAAAGLi8FGprXgy4VsfOc7GaOt4j/KNlXHj3ve1fmjZ1NVXwk4bY3XGjrR87iMDfs9KnZxjbH53t2i7RVuljXNLN6obIqCKggAAPrRw86nixb8u91nvYwt69P/HTM9vV8dzCu5TR0pbTCZLUbSnaT4q8Ve8+gwehqbcxXe2zw6vv6NK7ipnZTsbI7jUAAAAAAAAAAAAAAAAAAAAAfGrhac/Ggn5dj60a13B2LvTojv6/jG16U3a6d0saeSab2OUelNek0K9CYerozMfna9oxdcb8nxeRuCp1xv7TXnQMdVzy+7PnnYLI37z1f6kjQMddzy+5zz3fN9IZIgtspPqSPejQdiOlVM/D6MZxdfVEMmngaUdkFzy8LtN21o7DW+jRHjt9XjVfuVb5ZBuvIAAAAAAAAAAAAAAAAAAAAAAAAAAAAAAAAAAAAAAAAAAAAAAAAAAAAFwI0gI0wI0wG6AN0AboBOmBOkAuBIAAAAAAAAAAAAAAAAAAo2BVsCjYFWwI0gI0gGkA0gLKQEpgXTAsmBdMCQAAAAAAAAAAAAAAAEOIFHACrgBVwAjQAjQAaADQAlQAsoAWUALqIFgAAAAAAAAAAAAAAAAAAAALARYCLALATYBYCQAAAAAAAAAAAAAf/9k=;" vertex="1" parent="1">
          <mxGeometry x="680" y="694.2299999999999" width="46.4" height="50.95" as="geometry" />
        </mxCell>
        <mxCell id="vLRlwSHz0Y6urstr94TX-42" value="" style="shape=image;verticalLabelPosition=bottom;labelBackgroundColor=default;verticalAlign=top;aspect=fixed;imageAspect=0;image=https://miro.medium.com/v2/resize:fit:1200/1*fMPUMki182HzyVZvo_awDw.png;" vertex="1" parent="1">
          <mxGeometry x="770" y="699.0500000000001" width="88.36" height="41.9" as="geometry" />
        </mxCell>
        <mxCell id="vLRlwSHz0Y6urstr94TX-44" value="Agen" style="text;html=1;align=center;verticalAlign=middle;whiteSpace=wrap;rounded=0;" vertex="1" parent="1">
          <mxGeometry x="124" y="672" width="60" height="30" as="geometry" />
        </mxCell>
        <mxCell id="vLRlwSHz0Y6urstr94TX-45" value="Pemilik" style="text;html=1;align=center;verticalAlign=middle;whiteSpace=wrap;rounded=0;" vertex="1" parent="1">
          <mxGeometry x="123.75" y="792" width="60" height="30" as="geometry" />
        </mxCell>
      </root>
    </mxGraphModel>
  </diagram>
  <diagram id="N4SV1T-kG0PqLv22ZDKm" name="Flowchart Sistem">
    <mxGraphModel dx="1050" dy="557" grid="1" gridSize="10" guides="1" tooltips="1" connect="1" arrows="1" fold="1" page="1" pageScale="1" pageWidth="850" pageHeight="1100" math="0" shadow="0">
      <root>
        <mxCell id="0" />
        <mxCell id="1" parent="0" />
        <mxCell id="OIhBFlDNjj-y8JIajObR-8" style="edgeStyle=orthogonalEdgeStyle;rounded=0;orthogonalLoop=1;jettySize=auto;html=1;entryX=0.5;entryY=0;entryDx=0;entryDy=0;" edge="1" parent="1" source="OIhBFlDNjj-y8JIajObR-1" target="OIhBFlDNjj-y8JIajObR-2">
          <mxGeometry relative="1" as="geometry" />
        </mxCell>
        <mxCell id="OIhBFlDNjj-y8JIajObR-1" value="Mulai" style="ellipse;whiteSpace=wrap;html=1;" vertex="1" parent="1">
          <mxGeometry x="360" y="40" width="120" height="80" as="geometry" />
        </mxCell>
        <mxCell id="OIhBFlDNjj-y8JIajObR-9" style="edgeStyle=orthogonalEdgeStyle;rounded=0;orthogonalLoop=1;jettySize=auto;html=1;entryX=0.5;entryY=0;entryDx=0;entryDy=0;" edge="1" parent="1" source="OIhBFlDNjj-y8JIajObR-2" target="OIhBFlDNjj-y8JIajObR-3">
          <mxGeometry relative="1" as="geometry" />
        </mxCell>
        <mxCell id="OIhBFlDNjj-y8JIajObR-2" value="Login" style="rounded=0;whiteSpace=wrap;html=1;" vertex="1" parent="1">
          <mxGeometry x="360" y="160" width="120" height="40" as="geometry" />
        </mxCell>
        <mxCell id="OIhBFlDNjj-y8JIajObR-10" style="edgeStyle=orthogonalEdgeStyle;rounded=0;orthogonalLoop=1;jettySize=auto;html=1;entryX=0.5;entryY=0;entryDx=0;entryDy=0;" edge="1" parent="1" source="OIhBFlDNjj-y8JIajObR-3" target="OIhBFlDNjj-y8JIajObR-4">
          <mxGeometry relative="1" as="geometry" />
        </mxCell>
        <mxCell id="OIhBFlDNjj-y8JIajObR-3" value="Pilih Menu Utama" style="rounded=0;whiteSpace=wrap;html=1;" vertex="1" parent="1">
          <mxGeometry x="360" y="240" width="120" height="40" as="geometry" />
        </mxCell>
        <mxCell id="OIhBFlDNjj-y8JIajObR-11" style="edgeStyle=orthogonalEdgeStyle;rounded=0;orthogonalLoop=1;jettySize=auto;html=1;entryX=0.5;entryY=0;entryDx=0;entryDy=0;" edge="1" parent="1" source="OIhBFlDNjj-y8JIajObR-4" target="OIhBFlDNjj-y8JIajObR-5">
          <mxGeometry relative="1" as="geometry" />
        </mxCell>
        <mxCell id="OIhBFlDNjj-y8JIajObR-4" value="Pilih Fitur&lt;span style=&quot;color: rgba(0, 0, 0, 0); font-family: monospace; font-size: 0px; text-align: start; text-wrap-mode: nowrap;&quot;&gt;%3CmxGraphModel%3E%3Croot%3E%3CmxCell%20id%3D%220%22%2F%3E%3CmxCell%20id%3D%221%22%20parent%3D%220%22%2F%3E%3CmxCell%20id%3D%222%22%20value%3D%22Login%22%20style%3D%22rounded%3D0%3BwhiteSpace%3Dwrap%3Bhtml%3D1%3B%22%20vertex%3D%221%22%20parent%3D%221%22%3E%3CmxGeometry%20x%3D%22360%22%20y%3D%22160%22%20width%3D%22120%22%20height%3D%2240%22%20as%3D%22geometry%22%2F%3E%3C%2FmxCell%3E%3C%2Froot%3E%3C%2FmxGraphModel%3E&lt;/span&gt;" style="rounded=0;whiteSpace=wrap;html=1;" vertex="1" parent="1">
          <mxGeometry x="360" y="320" width="120" height="40" as="geometry" />
        </mxCell>
        <mxCell id="OIhBFlDNjj-y8JIajObR-12" style="edgeStyle=orthogonalEdgeStyle;rounded=0;orthogonalLoop=1;jettySize=auto;html=1;entryX=0.5;entryY=0;entryDx=0;entryDy=0;" edge="1" parent="1" source="OIhBFlDNjj-y8JIajObR-5" target="OIhBFlDNjj-y8JIajObR-6">
          <mxGeometry relative="1" as="geometry" />
        </mxCell>
        <mxCell id="OIhBFlDNjj-y8JIajObR-5" value="Proses Berdasrkan Fitur yang Dipilih" style="rounded=0;whiteSpace=wrap;html=1;" vertex="1" parent="1">
          <mxGeometry x="360" y="400" width="120" height="40" as="geometry" />
        </mxCell>
        <mxCell id="OIhBFlDNjj-y8JIajObR-13" style="edgeStyle=orthogonalEdgeStyle;rounded=0;orthogonalLoop=1;jettySize=auto;html=1;entryX=0.5;entryY=0;entryDx=0;entryDy=0;" edge="1" parent="1" source="OIhBFlDNjj-y8JIajObR-6" target="OIhBFlDNjj-y8JIajObR-7">
          <mxGeometry relative="1" as="geometry" />
        </mxCell>
        <mxCell id="OIhBFlDNjj-y8JIajObR-6" value="Tampilkan Hasil" style="rounded=0;whiteSpace=wrap;html=1;" vertex="1" parent="1">
          <mxGeometry x="360" y="480" width="120" height="40" as="geometry" />
        </mxCell>
        <mxCell id="OIhBFlDNjj-y8JIajObR-7" value="Selesai" style="ellipse;whiteSpace=wrap;html=1;" vertex="1" parent="1">
          <mxGeometry x="360" y="560" width="120" height="80" as="geometry" />
        </mxCell>
      </root>
    </mxGraphModel>
  </diagram>
  <diagram id="dfSYP-VhMwnq_OwfIFVE" name="ERD">
    <mxGraphModel dx="2350" dy="1896" grid="1" gridSize="10" guides="1" tooltips="1" connect="1" arrows="1" fold="1" page="1" pageScale="1" pageWidth="850" pageHeight="1100" math="0" shadow="0">
      <root>
        <mxCell id="0" />
        <mxCell id="1" parent="0" />
        <mxCell id="rNK_w9HRYsk1YVlGAz7k-2" value="Users" style="whiteSpace=wrap;html=1;align=center;" vertex="1" parent="1">
          <mxGeometry x="120" y="120" width="100" height="40" as="geometry" />
        </mxCell>
        <mxCell id="rNK_w9HRYsk1YVlGAz7k-3" value="user_id" style="ellipse;whiteSpace=wrap;html=1;align=center;fontStyle=4;" vertex="1" parent="1">
          <mxGeometry x="230" width="100" height="40" as="geometry" />
        </mxCell>
        <mxCell id="rNK_w9HRYsk1YVlGAz7k-4" value="username" style="ellipse;whiteSpace=wrap;html=1;align=center;" vertex="1" parent="1">
          <mxGeometry x="280" y="40" width="100" height="40" as="geometry" />
        </mxCell>
        <mxCell id="rNK_w9HRYsk1YVlGAz7k-5" value="email" style="ellipse;whiteSpace=wrap;html=1;align=center;" vertex="1" parent="1">
          <mxGeometry x="325" y="160" width="100" height="40" as="geometry" />
        </mxCell>
        <mxCell id="rNK_w9HRYsk1YVlGAz7k-6" value="password" style="ellipse;whiteSpace=wrap;html=1;align=center;" vertex="1" parent="1">
          <mxGeometry x="325" y="80" width="100" height="40" as="geometry" />
        </mxCell>
        <mxCell id="rNK_w9HRYsk1YVlGAz7k-7" value="role" style="ellipse;whiteSpace=wrap;html=1;align=center;" vertex="1" parent="1">
          <mxGeometry x="360" y="120" width="100" height="40" as="geometry" />
        </mxCell>
        <mxCell id="rNK_w9HRYsk1YVlGAz7k-8" value="created_at" style="ellipse;whiteSpace=wrap;html=1;align=center;" vertex="1" parent="1">
          <mxGeometry x="280" y="200" width="100" height="40" as="geometry" />
        </mxCell>
        <mxCell id="rNK_w9HRYsk1YVlGAz7k-9" value="" style="endArrow=none;html=1;rounded=0;exitX=1;exitY=0.5;exitDx=0;exitDy=0;entryX=0.5;entryY=1;entryDx=0;entryDy=0;" edge="1" parent="1" source="rNK_w9HRYsk1YVlGAz7k-2" target="rNK_w9HRYsk1YVlGAz7k-3">
          <mxGeometry relative="1" as="geometry">
            <mxPoint x="220" y="180" as="sourcePoint" />
            <mxPoint x="380" y="180" as="targetPoint" />
          </mxGeometry>
        </mxCell>
        <mxCell id="rNK_w9HRYsk1YVlGAz7k-10" value="" style="endArrow=none;html=1;rounded=0;exitX=1;exitY=0.5;exitDx=0;exitDy=0;entryX=0.5;entryY=1;entryDx=0;entryDy=0;" edge="1" parent="1" source="rNK_w9HRYsk1YVlGAz7k-2" target="rNK_w9HRYsk1YVlGAz7k-4">
          <mxGeometry relative="1" as="geometry">
            <mxPoint x="110" y="190" as="sourcePoint" />
            <mxPoint x="270" y="190" as="targetPoint" />
          </mxGeometry>
        </mxCell>
        <mxCell id="rNK_w9HRYsk1YVlGAz7k-11" value="" style="endArrow=none;html=1;rounded=0;exitX=1;exitY=0.5;exitDx=0;exitDy=0;entryX=0;entryY=0.5;entryDx=0;entryDy=0;" edge="1" parent="1" source="rNK_w9HRYsk1YVlGAz7k-2" target="rNK_w9HRYsk1YVlGAz7k-6">
          <mxGeometry relative="1" as="geometry">
            <mxPoint x="180" y="230" as="sourcePoint" />
            <mxPoint x="340" y="230" as="targetPoint" />
          </mxGeometry>
        </mxCell>
        <mxCell id="rNK_w9HRYsk1YVlGAz7k-12" value="" style="endArrow=none;html=1;rounded=0;exitX=1;exitY=0.5;exitDx=0;exitDy=0;" edge="1" parent="1" source="rNK_w9HRYsk1YVlGAz7k-2" target="rNK_w9HRYsk1YVlGAz7k-7">
          <mxGeometry relative="1" as="geometry">
            <mxPoint x="210" y="260" as="sourcePoint" />
            <mxPoint x="370" y="260" as="targetPoint" />
          </mxGeometry>
        </mxCell>
        <mxCell id="rNK_w9HRYsk1YVlGAz7k-13" value="" style="endArrow=none;html=1;rounded=0;exitX=1;exitY=0.5;exitDx=0;exitDy=0;entryX=0;entryY=0.5;entryDx=0;entryDy=0;" edge="1" parent="1" source="rNK_w9HRYsk1YVlGAz7k-2" target="rNK_w9HRYsk1YVlGAz7k-5">
          <mxGeometry relative="1" as="geometry">
            <mxPoint x="210" y="260" as="sourcePoint" />
            <mxPoint x="370" y="260" as="targetPoint" />
          </mxGeometry>
        </mxCell>
        <mxCell id="rNK_w9HRYsk1YVlGAz7k-16" value="" style="endArrow=none;html=1;rounded=0;exitX=1;exitY=0.5;exitDx=0;exitDy=0;entryX=0.5;entryY=0;entryDx=0;entryDy=0;" edge="1" parent="1" source="rNK_w9HRYsk1YVlGAz7k-2" target="rNK_w9HRYsk1YVlGAz7k-8">
          <mxGeometry relative="1" as="geometry">
            <mxPoint x="340" y="290" as="sourcePoint" />
            <mxPoint x="500" y="290" as="targetPoint" />
          </mxGeometry>
        </mxCell>
        <mxCell id="rNK_w9HRYsk1YVlGAz7k-17" value="Stock" style="whiteSpace=wrap;html=1;align=center;" vertex="1" parent="1">
          <mxGeometry x="120" y="360" width="100" height="40" as="geometry" />
        </mxCell>
        <mxCell id="rNK_w9HRYsk1YVlGAz7k-18" value="stock_id" style="ellipse;whiteSpace=wrap;html=1;align=center;fontStyle=4;" vertex="1" parent="1">
          <mxGeometry x="280" y="280" width="100" height="40" as="geometry" />
        </mxCell>
        <mxCell id="rNK_w9HRYsk1YVlGAz7k-19" value="user_id" style="ellipse;whiteSpace=wrap;html=1;align=center;" vertex="1" parent="1">
          <mxGeometry x="325" y="320" width="100" height="40" as="geometry" />
        </mxCell>
        <mxCell id="rNK_w9HRYsk1YVlGAz7k-20" value="item_name" style="ellipse;whiteSpace=wrap;html=1;align=center;" vertex="1" parent="1">
          <mxGeometry x="375" y="360" width="100" height="40" as="geometry" />
        </mxCell>
        <mxCell id="rNK_w9HRYsk1YVlGAz7k-21" value="quantity" style="ellipse;whiteSpace=wrap;html=1;align=center;" vertex="1" parent="1">
          <mxGeometry x="380" y="400" width="100" height="40" as="geometry" />
        </mxCell>
        <mxCell id="rNK_w9HRYsk1YVlGAz7k-22" value="unit" style="ellipse;whiteSpace=wrap;html=1;align=center;" vertex="1" parent="1">
          <mxGeometry x="330" y="440" width="100" height="40" as="geometry" />
        </mxCell>
        <mxCell id="rNK_w9HRYsk1YVlGAz7k-23" value="updated_at" style="ellipse;whiteSpace=wrap;html=1;align=center;" vertex="1" parent="1">
          <mxGeometry x="280" y="480" width="100" height="40" as="geometry" />
        </mxCell>
        <mxCell id="rNK_w9HRYsk1YVlGAz7k-24" value="" style="endArrow=none;html=1;rounded=0;exitX=1;exitY=0.5;exitDx=0;exitDy=0;entryX=0.5;entryY=1;entryDx=0;entryDy=0;" edge="1" parent="1" source="rNK_w9HRYsk1YVlGAz7k-17" target="rNK_w9HRYsk1YVlGAz7k-18">
          <mxGeometry relative="1" as="geometry">
            <mxPoint x="200" y="420" as="sourcePoint" />
            <mxPoint x="360" y="420" as="targetPoint" />
          </mxGeometry>
        </mxCell>
        <mxCell id="rNK_w9HRYsk1YVlGAz7k-25" value="" style="endArrow=none;html=1;rounded=0;exitX=1;exitY=0.5;exitDx=0;exitDy=0;entryX=0;entryY=0.5;entryDx=0;entryDy=0;" edge="1" parent="1" source="rNK_w9HRYsk1YVlGAz7k-17" target="rNK_w9HRYsk1YVlGAz7k-19">
          <mxGeometry relative="1" as="geometry">
            <mxPoint x="230" y="390" as="sourcePoint" />
            <mxPoint x="390" y="390" as="targetPoint" />
          </mxGeometry>
        </mxCell>
        <mxCell id="rNK_w9HRYsk1YVlGAz7k-27" value="" style="endArrow=none;html=1;rounded=0;exitX=1;exitY=0.5;exitDx=0;exitDy=0;entryX=0;entryY=0.5;entryDx=0;entryDy=0;" edge="1" parent="1" source="rNK_w9HRYsk1YVlGAz7k-17" target="rNK_w9HRYsk1YVlGAz7k-20">
          <mxGeometry relative="1" as="geometry">
            <mxPoint x="340" y="290" as="sourcePoint" />
            <mxPoint x="500" y="290" as="targetPoint" />
          </mxGeometry>
        </mxCell>
        <mxCell id="rNK_w9HRYsk1YVlGAz7k-28" value="" style="endArrow=none;html=1;rounded=0;exitX=1;exitY=0.5;exitDx=0;exitDy=0;entryX=0;entryY=0.5;entryDx=0;entryDy=0;" edge="1" parent="1" source="rNK_w9HRYsk1YVlGAz7k-17" target="rNK_w9HRYsk1YVlGAz7k-21">
          <mxGeometry relative="1" as="geometry">
            <mxPoint x="140" y="440" as="sourcePoint" />
            <mxPoint x="300" y="440" as="targetPoint" />
          </mxGeometry>
        </mxCell>
        <mxCell id="rNK_w9HRYsk1YVlGAz7k-29" value="" style="endArrow=none;html=1;rounded=0;exitX=1;exitY=0.5;exitDx=0;exitDy=0;entryX=0;entryY=0.5;entryDx=0;entryDy=0;" edge="1" parent="1" source="rNK_w9HRYsk1YVlGAz7k-17" target="rNK_w9HRYsk1YVlGAz7k-22">
          <mxGeometry relative="1" as="geometry">
            <mxPoint x="110" y="460" as="sourcePoint" />
            <mxPoint x="270" y="460" as="targetPoint" />
          </mxGeometry>
        </mxCell>
        <mxCell id="rNK_w9HRYsk1YVlGAz7k-30" value="" style="endArrow=none;html=1;rounded=0;exitX=1;exitY=0.5;exitDx=0;exitDy=0;entryX=0.5;entryY=0;entryDx=0;entryDy=0;" edge="1" parent="1" source="rNK_w9HRYsk1YVlGAz7k-17" target="rNK_w9HRYsk1YVlGAz7k-23">
          <mxGeometry relative="1" as="geometry">
            <mxPoint x="120" y="460" as="sourcePoint" />
            <mxPoint x="280" y="460" as="targetPoint" />
          </mxGeometry>
        </mxCell>
        <mxCell id="rNK_w9HRYsk1YVlGAz7k-31" value="Transactions" style="whiteSpace=wrap;html=1;align=center;" vertex="1" parent="1">
          <mxGeometry x="-320" y="360" width="100" height="40" as="geometry" />
        </mxCell>
        <mxCell id="rNK_w9HRYsk1YVlGAz7k-32" value="transaction_id" style="ellipse;whiteSpace=wrap;html=1;align=center;fontStyle=4;" vertex="1" parent="1">
          <mxGeometry x="-160" y="280" width="100" height="40" as="geometry" />
        </mxCell>
        <mxCell id="rNK_w9HRYsk1YVlGAz7k-33" value="user_id" style="ellipse;whiteSpace=wrap;html=1;align=center;" vertex="1" parent="1">
          <mxGeometry x="-110" y="320" width="100" height="40" as="geometry" />
        </mxCell>
        <mxCell id="rNK_w9HRYsk1YVlGAz7k-34" value="transaction_type" style="ellipse;whiteSpace=wrap;html=1;align=center;" vertex="1" parent="1">
          <mxGeometry x="-60" y="360" width="100" height="40" as="geometry" />
        </mxCell>
        <mxCell id="rNK_w9HRYsk1YVlGAz7k-35" value="item_name" style="ellipse;whiteSpace=wrap;html=1;align=center;" vertex="1" parent="1">
          <mxGeometry x="-20" y="400" width="100" height="40" as="geometry" />
        </mxCell>
        <mxCell id="rNK_w9HRYsk1YVlGAz7k-36" value="quantity" style="ellipse;whiteSpace=wrap;html=1;align=center;" vertex="1" parent="1">
          <mxGeometry x="-20" y="440" width="100" height="40" as="geometry" />
        </mxCell>
        <mxCell id="rNK_w9HRYsk1YVlGAz7k-37" value="price" style="ellipse;whiteSpace=wrap;html=1;align=center;" vertex="1" parent="1">
          <mxGeometry x="-60" y="480" width="100" height="40" as="geometry" />
        </mxCell>
        <mxCell id="rNK_w9HRYsk1YVlGAz7k-38" value="total" style="ellipse;whiteSpace=wrap;html=1;align=center;" vertex="1" parent="1">
          <mxGeometry x="-110" y="520" width="100" height="40" as="geometry" />
        </mxCell>
        <mxCell id="rNK_w9HRYsk1YVlGAz7k-39" value="transaction_date" style="ellipse;whiteSpace=wrap;html=1;align=center;" vertex="1" parent="1">
          <mxGeometry x="-160" y="560" width="100" height="40" as="geometry" />
        </mxCell>
        <mxCell id="rNK_w9HRYsk1YVlGAz7k-40" value="" style="endArrow=none;html=1;rounded=0;exitX=1;exitY=0.5;exitDx=0;exitDy=0;entryX=0.5;entryY=1;entryDx=0;entryDy=0;" edge="1" parent="1" source="rNK_w9HRYsk1YVlGAz7k-31" target="rNK_w9HRYsk1YVlGAz7k-32">
          <mxGeometry relative="1" as="geometry">
            <mxPoint x="-180" y="430" as="sourcePoint" />
            <mxPoint x="-20" y="430" as="targetPoint" />
          </mxGeometry>
        </mxCell>
        <mxCell id="rNK_w9HRYsk1YVlGAz7k-41" value="" style="endArrow=none;html=1;rounded=0;exitX=1;exitY=0.5;exitDx=0;exitDy=0;entryX=0;entryY=0.5;entryDx=0;entryDy=0;" edge="1" parent="1" source="rNK_w9HRYsk1YVlGAz7k-31" target="rNK_w9HRYsk1YVlGAz7k-33">
          <mxGeometry relative="1" as="geometry">
            <mxPoint x="-220" y="450" as="sourcePoint" />
            <mxPoint x="-60" y="450" as="targetPoint" />
          </mxGeometry>
        </mxCell>
        <mxCell id="rNK_w9HRYsk1YVlGAz7k-42" value="" style="endArrow=none;html=1;rounded=0;exitX=1;exitY=0.5;exitDx=0;exitDy=0;entryX=0;entryY=0.5;entryDx=0;entryDy=0;" edge="1" parent="1" source="rNK_w9HRYsk1YVlGAz7k-31" target="rNK_w9HRYsk1YVlGAz7k-34">
          <mxGeometry relative="1" as="geometry">
            <mxPoint x="-220" y="420" as="sourcePoint" />
            <mxPoint x="-60" y="420" as="targetPoint" />
          </mxGeometry>
        </mxCell>
        <mxCell id="rNK_w9HRYsk1YVlGAz7k-43" value="" style="endArrow=none;html=1;rounded=0;exitX=1;exitY=0.5;exitDx=0;exitDy=0;entryX=0;entryY=0.5;entryDx=0;entryDy=0;" edge="1" parent="1" source="rNK_w9HRYsk1YVlGAz7k-31" target="rNK_w9HRYsk1YVlGAz7k-35">
          <mxGeometry relative="1" as="geometry">
            <mxPoint x="-240" y="470" as="sourcePoint" />
            <mxPoint x="-80" y="470" as="targetPoint" />
          </mxGeometry>
        </mxCell>
        <mxCell id="rNK_w9HRYsk1YVlGAz7k-44" value="" style="endArrow=none;html=1;rounded=0;exitX=1;exitY=0.5;exitDx=0;exitDy=0;entryX=0;entryY=0.5;entryDx=0;entryDy=0;" edge="1" parent="1" source="rNK_w9HRYsk1YVlGAz7k-31" target="rNK_w9HRYsk1YVlGAz7k-36">
          <mxGeometry relative="1" as="geometry">
            <mxPoint x="-280" y="450" as="sourcePoint" />
            <mxPoint x="-120" y="450" as="targetPoint" />
          </mxGeometry>
        </mxCell>
        <mxCell id="rNK_w9HRYsk1YVlGAz7k-45" value="" style="endArrow=none;html=1;rounded=0;exitX=1;exitY=0.5;exitDx=0;exitDy=0;entryX=0;entryY=0.5;entryDx=0;entryDy=0;" edge="1" parent="1" source="rNK_w9HRYsk1YVlGAz7k-31" target="rNK_w9HRYsk1YVlGAz7k-37">
          <mxGeometry relative="1" as="geometry">
            <mxPoint x="-260" y="510" as="sourcePoint" />
            <mxPoint x="-100" y="510" as="targetPoint" />
          </mxGeometry>
        </mxCell>
        <mxCell id="rNK_w9HRYsk1YVlGAz7k-46" value="" style="endArrow=none;html=1;rounded=0;exitX=1;exitY=0.5;exitDx=0;exitDy=0;entryX=0.5;entryY=0;entryDx=0;entryDy=0;" edge="1" parent="1" source="rNK_w9HRYsk1YVlGAz7k-31" target="rNK_w9HRYsk1YVlGAz7k-38">
          <mxGeometry relative="1" as="geometry">
            <mxPoint x="-350" y="460" as="sourcePoint" />
            <mxPoint x="-190" y="460" as="targetPoint" />
          </mxGeometry>
        </mxCell>
        <mxCell id="rNK_w9HRYsk1YVlGAz7k-47" value="" style="endArrow=none;html=1;rounded=0;exitX=1;exitY=0.5;exitDx=0;exitDy=0;entryX=0.5;entryY=0;entryDx=0;entryDy=0;" edge="1" parent="1" source="rNK_w9HRYsk1YVlGAz7k-31" target="rNK_w9HRYsk1YVlGAz7k-39">
          <mxGeometry relative="1" as="geometry">
            <mxPoint x="-300" y="460" as="sourcePoint" />
            <mxPoint x="-140" y="460" as="targetPoint" />
          </mxGeometry>
        </mxCell>
        <mxCell id="rNK_w9HRYsk1YVlGAz7k-48" value="Reports" style="whiteSpace=wrap;html=1;align=center;" vertex="1" parent="1">
          <mxGeometry x="130" y="-190" width="100" height="40" as="geometry" />
        </mxCell>
        <mxCell id="rNK_w9HRYsk1YVlGAz7k-49" value="report_id" style="ellipse;whiteSpace=wrap;html=1;align=center;fontStyle=4;" vertex="1" parent="1">
          <mxGeometry x="290" y="-230" width="100" height="40" as="geometry" />
        </mxCell>
        <mxCell id="rNK_w9HRYsk1YVlGAz7k-50" value="user_id" style="ellipse;whiteSpace=wrap;html=1;align=center;" vertex="1" parent="1">
          <mxGeometry x="340" y="-190" width="100" height="40" as="geometry" />
        </mxCell>
        <mxCell id="rNK_w9HRYsk1YVlGAz7k-51" value="report_type" style="ellipse;whiteSpace=wrap;html=1;align=center;" vertex="1" parent="1">
          <mxGeometry x="390" y="-150" width="100" height="40" as="geometry" />
        </mxCell>
        <mxCell id="rNK_w9HRYsk1YVlGAz7k-52" value="created_at" style="ellipse;whiteSpace=wrap;html=1;align=center;" vertex="1" parent="1">
          <mxGeometry x="340" y="-110" width="100" height="40" as="geometry" />
        </mxCell>
        <mxCell id="rNK_w9HRYsk1YVlGAz7k-53" value="data" style="ellipse;whiteSpace=wrap;html=1;align=center;" vertex="1" parent="1">
          <mxGeometry x="290" y="-70" width="100" height="40" as="geometry" />
        </mxCell>
        <mxCell id="rNK_w9HRYsk1YVlGAz7k-54" value="" style="endArrow=none;html=1;rounded=0;exitX=1;exitY=0.5;exitDx=0;exitDy=0;entryX=0.5;entryY=1;entryDx=0;entryDy=0;" edge="1" parent="1" source="rNK_w9HRYsk1YVlGAz7k-48" target="rNK_w9HRYsk1YVlGAz7k-49">
          <mxGeometry relative="1" as="geometry">
            <mxPoint x="210" y="-130" as="sourcePoint" />
            <mxPoint x="370" y="-130" as="targetPoint" />
          </mxGeometry>
        </mxCell>
        <mxCell id="rNK_w9HRYsk1YVlGAz7k-55" value="" style="endArrow=none;html=1;rounded=0;exitX=1;exitY=0.5;exitDx=0;exitDy=0;entryX=0.5;entryY=1;entryDx=0;entryDy=0;" edge="1" parent="1" source="rNK_w9HRYsk1YVlGAz7k-48" target="rNK_w9HRYsk1YVlGAz7k-50">
          <mxGeometry relative="1" as="geometry">
            <mxPoint x="230" y="-120" as="sourcePoint" />
            <mxPoint x="390" y="-120" as="targetPoint" />
          </mxGeometry>
        </mxCell>
        <mxCell id="rNK_w9HRYsk1YVlGAz7k-56" value="" style="endArrow=none;html=1;rounded=0;exitX=1;exitY=0.5;exitDx=0;exitDy=0;entryX=0;entryY=0.5;entryDx=0;entryDy=0;" edge="1" parent="1" source="rNK_w9HRYsk1YVlGAz7k-48" target="rNK_w9HRYsk1YVlGAz7k-51">
          <mxGeometry relative="1" as="geometry">
            <mxPoint x="250" y="-120" as="sourcePoint" />
            <mxPoint x="410" y="-120" as="targetPoint" />
          </mxGeometry>
        </mxCell>
        <mxCell id="rNK_w9HRYsk1YVlGAz7k-57" value="" style="endArrow=none;html=1;rounded=0;exitX=1;exitY=0.5;exitDx=0;exitDy=0;entryX=0;entryY=0;entryDx=0;entryDy=0;" edge="1" parent="1" source="rNK_w9HRYsk1YVlGAz7k-48" target="rNK_w9HRYsk1YVlGAz7k-52">
          <mxGeometry relative="1" as="geometry">
            <mxPoint x="210" y="-200" as="sourcePoint" />
            <mxPoint x="370" y="-200" as="targetPoint" />
          </mxGeometry>
        </mxCell>
        <mxCell id="rNK_w9HRYsk1YVlGAz7k-58" value="" style="endArrow=none;html=1;rounded=0;exitX=1;exitY=0.5;exitDx=0;exitDy=0;entryX=0.5;entryY=0;entryDx=0;entryDy=0;" edge="1" parent="1" source="rNK_w9HRYsk1YVlGAz7k-48" target="rNK_w9HRYsk1YVlGAz7k-53">
          <mxGeometry relative="1" as="geometry">
            <mxPoint x="180" y="-40" as="sourcePoint" />
            <mxPoint x="340" y="-40" as="targetPoint" />
          </mxGeometry>
        </mxCell>
        <mxCell id="rNK_w9HRYsk1YVlGAz7k-59" value="Agent_Performance" style="whiteSpace=wrap;html=1;align=center;" vertex="1" parent="1">
          <mxGeometry x="-260" y="-170" width="120" height="40" as="geometry" />
        </mxCell>
        <mxCell id="rNK_w9HRYsk1YVlGAz7k-60" value="performance_id" style="ellipse;whiteSpace=wrap;html=1;align=center;fontStyle=4;" vertex="1" parent="1">
          <mxGeometry x="-80" y="-210" width="100" height="40" as="geometry" />
        </mxCell>
        <mxCell id="rNK_w9HRYsk1YVlGAz7k-61" value="user_id" style="ellipse;whiteSpace=wrap;html=1;align=center;" vertex="1" parent="1">
          <mxGeometry x="-30" y="-170" width="100" height="40" as="geometry" />
        </mxCell>
        <mxCell id="rNK_w9HRYsk1YVlGAz7k-62" value="total_sales" style="ellipse;whiteSpace=wrap;html=1;align=center;" vertex="1" parent="1">
          <mxGeometry x="20" y="-130" width="100" height="40" as="geometry" />
        </mxCell>
        <mxCell id="rNK_w9HRYsk1YVlGAz7k-63" value="total_transactions" style="ellipse;whiteSpace=wrap;html=1;align=center;" vertex="1" parent="1">
          <mxGeometry x="-30" y="-90" width="100" height="40" as="geometry" />
        </mxCell>
        <mxCell id="rNK_w9HRYsk1YVlGAz7k-64" value="evaluation_date" style="ellipse;whiteSpace=wrap;html=1;align=center;" vertex="1" parent="1">
          <mxGeometry x="-80" y="-50" width="100" height="40" as="geometry" />
        </mxCell>
        <mxCell id="rNK_w9HRYsk1YVlGAz7k-65" value="" style="endArrow=none;html=1;rounded=0;exitX=1;exitY=0.5;exitDx=0;exitDy=0;entryX=0;entryY=0.5;entryDx=0;entryDy=0;" edge="1" parent="1" source="rNK_w9HRYsk1YVlGAz7k-59" target="rNK_w9HRYsk1YVlGAz7k-60">
          <mxGeometry relative="1" as="geometry">
            <mxPoint x="-180" y="-60" as="sourcePoint" />
            <mxPoint x="-20" y="-60" as="targetPoint" />
          </mxGeometry>
        </mxCell>
        <mxCell id="rNK_w9HRYsk1YVlGAz7k-66" value="" style="endArrow=none;html=1;rounded=0;exitX=1;exitY=0.5;exitDx=0;exitDy=0;" edge="1" parent="1" source="rNK_w9HRYsk1YVlGAz7k-59" target="rNK_w9HRYsk1YVlGAz7k-61">
          <mxGeometry relative="1" as="geometry">
            <mxPoint x="-250" y="-90" as="sourcePoint" />
            <mxPoint x="-90" y="-90" as="targetPoint" />
          </mxGeometry>
        </mxCell>
        <mxCell id="rNK_w9HRYsk1YVlGAz7k-67" value="" style="endArrow=none;html=1;rounded=0;exitX=1;exitY=0.5;exitDx=0;exitDy=0;entryX=0;entryY=0.5;entryDx=0;entryDy=0;" edge="1" parent="1" source="rNK_w9HRYsk1YVlGAz7k-59" target="rNK_w9HRYsk1YVlGAz7k-62">
          <mxGeometry relative="1" as="geometry">
            <mxPoint x="-180" y="-70" as="sourcePoint" />
            <mxPoint x="-20" y="-70" as="targetPoint" />
          </mxGeometry>
        </mxCell>
        <mxCell id="rNK_w9HRYsk1YVlGAz7k-68" value="" style="endArrow=none;html=1;rounded=0;exitX=1;exitY=0.5;exitDx=0;exitDy=0;entryX=0.5;entryY=0;entryDx=0;entryDy=0;" edge="1" parent="1" source="rNK_w9HRYsk1YVlGAz7k-59" target="rNK_w9HRYsk1YVlGAz7k-64">
          <mxGeometry relative="1" as="geometry">
            <mxPoint x="-250" y="-10" as="sourcePoint" />
            <mxPoint x="-90" y="-10" as="targetPoint" />
          </mxGeometry>
        </mxCell>
        <mxCell id="rNK_w9HRYsk1YVlGAz7k-69" value="memiliki " style="shape=rhombus;perimeter=rhombusPerimeter;whiteSpace=wrap;html=1;align=center;" vertex="1" parent="1">
          <mxGeometry x="110" y="230" width="120" height="60" as="geometry" />
        </mxCell>
        <mxCell id="rNK_w9HRYsk1YVlGAz7k-70" value="" style="endArrow=none;html=1;rounded=0;exitX=0.5;exitY=1;exitDx=0;exitDy=0;entryX=0.5;entryY=0;entryDx=0;entryDy=0;" edge="1" parent="1" source="rNK_w9HRYsk1YVlGAz7k-2" target="rNK_w9HRYsk1YVlGAz7k-69">
          <mxGeometry relative="1" as="geometry">
            <mxPoint x="80" y="230" as="sourcePoint" />
            <mxPoint x="240" y="230" as="targetPoint" />
          </mxGeometry>
        </mxCell>
        <mxCell id="rNK_w9HRYsk1YVlGAz7k-71" value="" style="endArrow=none;html=1;rounded=0;exitX=0.5;exitY=1;exitDx=0;exitDy=0;entryX=0.5;entryY=0;entryDx=0;entryDy=0;" edge="1" parent="1" source="rNK_w9HRYsk1YVlGAz7k-69" target="rNK_w9HRYsk1YVlGAz7k-17">
          <mxGeometry relative="1" as="geometry">
            <mxPoint x="170" y="290" as="sourcePoint" />
            <mxPoint x="330" y="290" as="targetPoint" />
          </mxGeometry>
        </mxCell>
        <mxCell id="rNK_w9HRYsk1YVlGAz7k-72" value="melakukan " style="shape=rhombus;perimeter=rhombusPerimeter;whiteSpace=wrap;html=1;align=center;" vertex="1" parent="1">
          <mxGeometry x="-150" y="190" width="120" height="60" as="geometry" />
        </mxCell>
        <mxCell id="rNK_w9HRYsk1YVlGAz7k-73" value="" style="endArrow=none;html=1;rounded=0;entryX=0.5;entryY=0;entryDx=0;entryDy=0;exitX=0;exitY=0.5;exitDx=0;exitDy=0;" edge="1" parent="1" source="rNK_w9HRYsk1YVlGAz7k-72" target="rNK_w9HRYsk1YVlGAz7k-31">
          <mxGeometry relative="1" as="geometry">
            <mxPoint x="-340" y="220" as="sourcePoint" />
            <mxPoint x="-180" y="220" as="targetPoint" />
          </mxGeometry>
        </mxCell>
        <mxCell id="rNK_w9HRYsk1YVlGAz7k-74" value="" style="endArrow=none;html=1;rounded=0;entryX=0;entryY=0.5;entryDx=0;entryDy=0;" edge="1" parent="1" source="rNK_w9HRYsk1YVlGAz7k-83" target="rNK_w9HRYsk1YVlGAz7k-2">
          <mxGeometry relative="1" as="geometry">
            <mxPoint x="-30" y="220" as="sourcePoint" />
            <mxPoint x="130" y="220" as="targetPoint" />
          </mxGeometry>
        </mxCell>
        <mxCell id="rNK_w9HRYsk1YVlGAz7k-75" value="membuat " style="shape=rhombus;perimeter=rhombusPerimeter;whiteSpace=wrap;html=1;align=center;" vertex="1" parent="1">
          <mxGeometry x="120" y="-50" width="120" height="60" as="geometry" />
        </mxCell>
        <mxCell id="rNK_w9HRYsk1YVlGAz7k-76" value="" style="endArrow=none;html=1;rounded=0;exitX=0.5;exitY=0;exitDx=0;exitDy=0;entryX=0.5;entryY=1;entryDx=0;entryDy=0;" edge="1" parent="1" source="rNK_w9HRYsk1YVlGAz7k-2" target="rNK_w9HRYsk1YVlGAz7k-75">
          <mxGeometry relative="1" as="geometry">
            <mxPoint x="610" y="-100" as="sourcePoint" />
            <mxPoint x="770" y="-100" as="targetPoint" />
          </mxGeometry>
        </mxCell>
        <mxCell id="rNK_w9HRYsk1YVlGAz7k-77" value="" style="endArrow=none;html=1;rounded=0;entryX=0.5;entryY=0;entryDx=0;entryDy=0;exitX=0.5;exitY=1;exitDx=0;exitDy=0;" edge="1" parent="1" source="rNK_w9HRYsk1YVlGAz7k-48" target="rNK_w9HRYsk1YVlGAz7k-75">
          <mxGeometry relative="1" as="geometry">
            <mxPoint x="20" y="-100" as="sourcePoint" />
            <mxPoint x="180" y="-100" as="targetPoint" />
          </mxGeometry>
        </mxCell>
        <mxCell id="rNK_w9HRYsk1YVlGAz7k-78" value="Relationship" style="shape=rhombus;perimeter=rhombusPerimeter;whiteSpace=wrap;html=1;align=center;" vertex="1" parent="1">
          <mxGeometry x="-200" y="30" width="120" height="60" as="geometry" />
        </mxCell>
        <mxCell id="rNK_w9HRYsk1YVlGAz7k-80" value="" style="endArrow=none;html=1;rounded=0;exitX=0.5;exitY=1;exitDx=0;exitDy=0;entryX=0.5;entryY=0;entryDx=0;entryDy=0;" edge="1" parent="1" source="rNK_w9HRYsk1YVlGAz7k-59" target="rNK_w9HRYsk1YVlGAz7k-78">
          <mxGeometry relative="1" as="geometry">
            <mxPoint x="-140" y="-100" as="sourcePoint" />
            <mxPoint x="20" y="-100" as="targetPoint" />
          </mxGeometry>
        </mxCell>
        <mxCell id="rNK_w9HRYsk1YVlGAz7k-81" value="" style="endArrow=none;html=1;rounded=0;exitX=1;exitY=0.5;exitDx=0;exitDy=0;entryX=0;entryY=0.5;entryDx=0;entryDy=0;" edge="1" parent="1" source="rNK_w9HRYsk1YVlGAz7k-78" target="rNK_w9HRYsk1YVlGAz7k-2">
          <mxGeometry relative="1" as="geometry">
            <mxPoint x="-340" y="130" as="sourcePoint" />
            <mxPoint x="-180" y="130" as="targetPoint" />
          </mxGeometry>
        </mxCell>
        <mxCell id="rNK_w9HRYsk1YVlGAz7k-82" value="&lt;b&gt;1&lt;/b&gt;" style="text;strokeColor=none;fillColor=none;spacingLeft=4;spacingRight=4;overflow=hidden;rotatable=0;points=[[0,0.5],[1,0.5]];portConstraint=eastwest;fontSize=12;whiteSpace=wrap;html=1;" vertex="1" parent="1">
          <mxGeometry x="-90" y="60" width="40" height="30" as="geometry" />
        </mxCell>
        <mxCell id="rNK_w9HRYsk1YVlGAz7k-85" value="" style="endArrow=none;html=1;rounded=0;entryX=0;entryY=0.5;entryDx=0;entryDy=0;" edge="1" parent="1" source="rNK_w9HRYsk1YVlGAz7k-72" target="rNK_w9HRYsk1YVlGAz7k-83">
          <mxGeometry relative="1" as="geometry">
            <mxPoint x="-56" y="207" as="sourcePoint" />
            <mxPoint x="120" y="140" as="targetPoint" />
          </mxGeometry>
        </mxCell>
        <mxCell id="rNK_w9HRYsk1YVlGAz7k-83" value="&lt;b style=&quot;forced-color-adjust: none; color: rgb(0, 0, 0); font-family: Helvetica; font-size: 12px; font-style: normal; font-variant-ligatures: normal; font-variant-caps: normal; letter-spacing: normal; orphans: 2; text-align: left; text-indent: 0px; text-transform: none; widows: 2; word-spacing: 0px; -webkit-text-stroke-width: 0px; white-space: normal; background-color: rgb(251, 251, 251); text-decoration-thickness: initial; text-decoration-style: initial; text-decoration-color: initial;&quot;&gt;1&lt;/b&gt;" style="text;whiteSpace=wrap;html=1;" vertex="1" parent="1">
          <mxGeometry x="-60" y="180" width="40" height="40" as="geometry" />
        </mxCell>
        <mxCell id="rNK_w9HRYsk1YVlGAz7k-86" value="&lt;b style=&quot;forced-color-adjust: none; color: rgb(0, 0, 0); font-family: Helvetica; font-size: 12px; font-style: normal; font-variant-ligatures: normal; font-variant-caps: normal; letter-spacing: normal; orphans: 2; text-align: left; text-indent: 0px; text-transform: none; widows: 2; word-spacing: 0px; -webkit-text-stroke-width: 0px; white-space: normal; background-color: rgb(251, 251, 251); text-decoration-thickness: initial; text-decoration-style: initial; text-decoration-color: initial;&quot;&gt;1&lt;/b&gt;" style="text;whiteSpace=wrap;html=1;" vertex="1" parent="1">
          <mxGeometry x="180" y="210" width="40" height="40" as="geometry" />
        </mxCell>
        <mxCell id="rNK_w9HRYsk1YVlGAz7k-87" value="&lt;b style=&quot;forced-color-adjust: none; color: rgb(0, 0, 0); font-family: Helvetica; font-size: 12px; font-style: normal; font-variant-ligatures: normal; font-variant-caps: normal; letter-spacing: normal; orphans: 2; text-align: left; text-indent: 0px; text-transform: none; widows: 2; word-spacing: 0px; -webkit-text-stroke-width: 0px; white-space: normal; background-color: rgb(251, 251, 251); text-decoration-thickness: initial; text-decoration-style: initial; text-decoration-color: initial;&quot;&gt;1&lt;/b&gt;" style="text;whiteSpace=wrap;html=1;" vertex="1" parent="1">
          <mxGeometry x="160" y="10" width="40" height="40" as="geometry" />
        </mxCell>
        <mxCell id="rNK_w9HRYsk1YVlGAz7k-88" value="&lt;b style=&quot;forced-color-adjust: none; color: rgb(0, 0, 0); font-family: Helvetica; font-size: 12px; font-style: normal; font-variant-ligatures: normal; font-variant-caps: normal; letter-spacing: normal; orphans: 2; text-align: left; text-indent: 0px; text-transform: none; widows: 2; word-spacing: 0px; -webkit-text-stroke-width: 0px; white-space: normal; background-color: rgb(251, 251, 251); text-decoration-thickness: initial; text-decoration-style: initial; text-decoration-color: initial;&quot;&gt;M&lt;/b&gt;" style="text;whiteSpace=wrap;html=1;" vertex="1" parent="1">
          <mxGeometry x="190" y="-80" width="40" height="40" as="geometry" />
        </mxCell>
        <mxCell id="rNK_w9HRYsk1YVlGAz7k-95" value="&lt;b style=&quot;forced-color-adjust: none; color: rgb(0, 0, 0); font-family: Helvetica; font-size: 12px; font-style: normal; font-variant-ligatures: normal; font-variant-caps: normal; letter-spacing: normal; orphans: 2; text-align: left; text-indent: 0px; text-transform: none; widows: 2; word-spacing: 0px; -webkit-text-stroke-width: 0px; white-space: normal; background-color: rgb(251, 251, 251); text-decoration-thickness: initial; text-decoration-style: initial; text-decoration-color: initial;&quot;&gt;M&lt;/b&gt;" style="text;whiteSpace=wrap;html=1;" vertex="1" parent="1">
          <mxGeometry x="180" y="290" width="40" height="50" as="geometry" />
        </mxCell>
        <mxCell id="rNK_w9HRYsk1YVlGAz7k-96" value="&lt;b style=&quot;forced-color-adjust: none; color: rgb(0, 0, 0); font-family: Helvetica; font-size: 12px; font-style: normal; font-variant-ligatures: normal; font-variant-caps: normal; letter-spacing: normal; orphans: 2; text-align: left; text-indent: 0px; text-transform: none; widows: 2; word-spacing: 0px; -webkit-text-stroke-width: 0px; white-space: normal; background-color: rgb(251, 251, 251); text-decoration-thickness: initial; text-decoration-style: initial; text-decoration-color: initial;&quot;&gt;M&lt;/b&gt;" style="text;whiteSpace=wrap;html=1;" vertex="1" parent="1">
          <mxGeometry x="-150" y="220" width="40" height="40" as="geometry" />
        </mxCell>
        <mxCell id="rNK_w9HRYsk1YVlGAz7k-97" value="&lt;b&gt;1&lt;/b&gt;" style="text;strokeColor=none;fillColor=none;spacingLeft=4;spacingRight=4;overflow=hidden;rotatable=0;points=[[0,0.5],[1,0.5]];portConstraint=eastwest;fontSize=12;whiteSpace=wrap;html=1;" vertex="1" parent="1">
          <mxGeometry x="-140" width="40" height="30" as="geometry" />
        </mxCell>
      </root>
    </mxGraphModel>
  </diagram>
</mxfile>
